<svg version="1.1" id="Layer_1" xmlns="http://www.w3.org/2000/svg" xmlns:xlink="http://www.w3.org/1999/xlink" x="0px" y="0px"
	 width="100%" viewBox="0 0 600 600" enable-background="new 0 0 600 600" xml:space="preserve">
<path fill="#3FA0EA" opacity="1.000000" stroke="none" 
	d="
M601.000000,517.000000 
	C601.000000,523.354431 601.000000,529.708801 600.642578,536.583679 
	C594.164612,540.816772 587.623901,542.116150 580.387573,542.105469 
	C475.953674,541.951416 371.519501,541.999451 267.085358,542.004517 
	C265.254791,542.004639 263.423859,542.117004 261.593750,542.100952 
	C252.093384,542.017944 242.593201,541.912720 233.093124,541.800110 
	C232.771866,541.796326 232.452805,541.554810 232.132233,541.553650 
	C229.344452,541.543213 226.556473,541.580566 223.768738,541.567627 
	C221.139648,541.555420 218.510742,541.500488 215.881790,541.462463 
	C213.411667,541.426636 210.941681,541.367493 208.471451,541.357117 
	C205.524826,541.344727 202.577972,541.389465 199.631317,541.378662 
	C197.319992,541.370239 195.007294,541.243347 192.697906,541.293579 
	C184.976288,541.461548 177.254837,541.875671 169.535278,541.834290 
	C161.817596,541.792969 154.102737,541.117554 146.385712,541.098694 
	C140.677338,541.084717 134.956161,542.087219 129.260208,541.929871 
	C103.606262,541.221313 77.914238,543.750671 52.287773,541.013855 
	C51.630619,540.943665 50.956497,541.016663 50.291035,541.042297 
	C42.575588,541.339050 34.859638,541.892029 27.145128,541.872070 
	C18.429392,541.849548 9.714986,541.312988 1.000000,541.000000 
	C1.000000,533.312439 1.000000,525.624817 1.461714,517.468628 
	C10.138794,517.333374 18.351849,517.856873 26.570055,517.956726 
	C39.825333,518.117920 53.084530,517.935242 66.340904,518.042358 
	C69.971199,518.071716 73.706108,519.329895 77.205650,518.796021 
	C89.383804,516.938232 101.519196,516.444336 113.756348,517.949463 
	C118.192154,518.495117 122.679634,518.969910 127.137016,518.917908 
	C136.362839,518.810425 145.582047,518.170898 154.808105,518.039612 
	C166.396530,517.874756 177.989075,518.000000 189.579849,518.000000 
	C208.244370,518.000000 226.908875,518.000000 245.573395,518.000000 
	C255.331238,518.000000 265.089966,517.926147 274.846405,518.042908 
	C277.977661,518.080383 281.119232,518.998718 284.227905,518.863708 
	C294.975128,518.397217 305.703583,517.463989 316.452454,517.083801 
	C321.138062,516.917969 325.854370,517.891235 330.559479,517.921753 
	C334.351196,517.946228 338.150879,517.022766 341.940216,517.069519 
	C348.238831,517.147217 354.530731,517.890686 360.827881,517.926270 
	C365.788116,517.954224 370.755554,517.016479 375.713501,517.071838 
	C388.269043,517.211914 400.822845,517.614990 413.373474,518.029297 
	C417.841705,518.176758 422.302765,518.983521 426.760223,518.928833 
	C439.315460,518.775085 451.865814,518.167114 464.420715,518.067566 
	C470.879791,518.016296 477.343689,518.936523 483.806702,518.954834 
	C517.802551,519.051331 551.799194,519.082336 585.794434,518.910828 
	C590.866028,518.885254 595.931641,517.666687 601.000000,517.000000 
z"/>
<path fill="#3C99E6" opacity="1.000000" stroke="none" 
	d="
M601.000000,516.531738 
	C595.931641,517.666687 590.866028,518.885254 585.794434,518.910828 
	C551.799194,519.082336 517.802551,519.051331 483.806702,518.954834 
	C477.343689,518.936523 470.879791,518.016296 464.420715,518.067566 
	C451.865814,518.167114 439.315460,518.775085 426.760223,518.928833 
	C422.302765,518.983521 417.841705,518.176758 413.373474,518.029297 
	C400.822845,517.614990 388.269043,517.211914 375.713501,517.071838 
	C370.755554,517.016479 365.788116,517.954224 360.827881,517.926270 
	C354.530731,517.890686 348.238831,517.147217 341.940216,517.069519 
	C338.150879,517.022766 334.351196,517.946228 330.559479,517.921753 
	C325.854370,517.891235 321.138062,516.917969 316.452454,517.083801 
	C305.703583,517.463989 294.975128,518.397217 284.227905,518.863708 
	C281.119232,518.998718 277.977661,518.080383 274.846405,518.042908 
	C265.089966,517.926147 255.331238,518.000000 245.573395,518.000000 
	C226.908875,518.000000 208.244370,518.000000 189.579849,518.000000 
	C177.989075,518.000000 166.396530,517.874756 154.808105,518.039612 
	C145.582047,518.170898 136.362839,518.810425 127.137016,518.917908 
	C122.679634,518.969910 118.192154,518.495117 113.756348,517.949463 
	C101.519196,516.444336 89.383804,516.938232 77.205650,518.796021 
	C73.706108,519.329895 69.971199,518.071716 66.340904,518.042358 
	C53.084530,517.935242 39.825333,518.117920 26.570055,517.956726 
	C18.351849,517.856873 10.138794,517.333374 1.461714,517.000000 
	C1.000000,509.312408 1.000000,501.624847 1.461958,493.468628 
	C8.007293,492.420685 14.095023,491.335114 20.172968,491.387390 
	C28.171560,491.456177 36.156616,492.523407 44.158035,492.974152 
	C56.142334,493.649323 68.060303,491.249847 80.156166,492.750336 
	C86.523911,493.540253 93.208450,491.301575 99.751480,491.289917 
	C105.985161,491.278809 112.243118,493.041870 118.449921,492.831329 
	C125.971565,492.576263 133.386002,491.213806 140.981049,492.847321 
	C143.903931,493.475983 147.200684,492.090790 150.318771,492.140747 
	C158.530426,492.272278 166.888611,493.795227 174.907059,492.701416 
	C184.301559,491.419891 193.505920,491.418213 202.863708,491.873840 
	C205.298859,491.992401 207.809448,490.561462 210.635651,489.883484 
	C246.236084,506.200806 283.128021,513.037781 321.851440,508.963959 
	C329.450500,508.164551 337.126129,507.284607 344.509125,505.421875 
	C356.733948,502.337494 368.749756,498.424469 380.891235,495.269470 
	C381.325256,497.668213 381.721680,499.658020 382.122437,501.669678 
	C384.988861,500.989197 387.047272,500.137299 389.132812,500.064728 
	C402.119934,499.612793 415.111694,499.143585 428.104675,499.043640 
	C449.163269,498.881683 470.223999,499.000000 491.283844,499.000000 
	C523.069641,499.000000 554.855591,499.041534 586.641174,498.955383 
	C591.428284,498.942413 596.213745,498.333344 601.000000,498.000000 
	C601.000000,504.021149 601.000000,510.042328 601.000000,516.531738 
z"/>
<path fill="#020CA3" opacity="1.000000" stroke="none" 
	d="
M1.000000,20.000000 
	C1.000000,13.671078 1.000000,7.342155 1.000000,1.006616 
	C200.356644,1.000000 399.713287,1.000000 599.536133,1.468654 
	C600.000732,10.623871 599.999146,19.310434 599.646851,27.920944 
	C598.734924,27.266365 597.744873,26.732513 597.679260,26.102364 
	C597.058960,20.147167 593.118958,19.854452 588.327515,19.926807 
	C574.575195,20.134483 560.817688,20.000000 547.062256,20.000000 
	C537.139160,20.000000 527.216003,20.000000 517.292908,20.000000 
	C506.370056,20.000000 495.447235,20.000000 484.524384,20.000000 
	C473.768158,20.000000 463.011932,20.000000 452.255707,20.000000 
	C441.666107,20.000000 431.076477,20.000000 420.486877,20.000000 
	C409.730652,20.000000 398.974426,20.000000 388.218201,20.000000 
	C377.795227,20.000000 367.372223,20.000000 356.949249,20.000000 
	C345.859772,20.000000 334.770294,20.000000 323.680817,20.000000 
	C313.757690,20.000000 303.834595,20.000000 293.911469,20.000000 
	C282.155518,20.000000 270.399536,19.999969 258.643585,20.000011 
	C249.720215,20.000044 240.796829,20.000208 231.873459,20.000237 
	C218.951126,20.000280 206.028809,20.000256 193.106476,20.000256 
	C184.682968,20.000254 176.259369,19.976995 167.835999,20.011024 
	C164.175461,20.025812 160.515686,20.204618 156.855072,20.226713 
	C151.254425,20.260517 145.653336,20.207563 140.052490,20.220547 
	C134.901031,20.232491 129.749710,20.301701 124.598282,20.311169 
	C119.157219,20.321171 113.716095,20.289345 108.274994,20.277697 
	C103.123093,20.266668 97.971191,20.259037 92.819290,20.248215 
	C87.218018,20.236448 81.616493,20.183636 76.015556,20.221149 
	C70.704941,20.256720 65.394173,20.354549 60.084976,20.486038 
	C56.938717,20.563957 53.790558,20.945591 50.651752,20.863930 
	C44.352661,20.700050 38.061798,20.144743 31.763197,20.054768 
	C21.510630,19.908310 11.254580,20.005587 1.000000,20.000000 
z"/>
<path fill="#0312A5" opacity="1.000000" stroke="none" 
	d="
M1.000000,20.467939 
	C11.254580,20.005587 21.510630,19.908310 31.763197,20.054768 
	C38.061798,20.144743 44.352661,20.700050 50.651752,20.863930 
	C53.790558,20.945591 56.938717,20.563957 60.084976,20.486038 
	C65.394173,20.354549 70.704941,20.256720 76.015556,20.221149 
	C81.616493,20.183636 87.218018,20.236448 92.819290,20.248215 
	C97.971191,20.259037 103.123093,20.266668 108.274994,20.277697 
	C113.716095,20.289345 119.157219,20.321171 124.598282,20.311169 
	C129.749710,20.301701 134.901031,20.232491 140.052490,20.220547 
	C145.653336,20.207563 151.254425,20.260517 156.855072,20.226713 
	C160.515686,20.204618 164.175461,20.025812 167.835999,20.011024 
	C176.259369,19.976995 184.682968,20.000254 193.106476,20.000256 
	C206.028809,20.000256 218.951126,20.000280 231.873459,20.000237 
	C240.796829,20.000208 249.720215,20.000044 258.643585,20.000011 
	C270.399536,19.999969 282.155518,20.000000 293.911469,20.000000 
	C303.834595,20.000000 313.757690,20.000000 323.680817,20.000000 
	C334.770294,20.000000 345.859772,20.000000 356.949249,20.000000 
	C367.372223,20.000000 377.795227,20.000000 388.218201,20.000000 
	C398.974426,20.000000 409.730652,20.000000 420.486877,20.000000 
	C431.076477,20.000000 441.666107,20.000000 452.255707,20.000000 
	C463.011932,20.000000 473.768158,20.000000 484.524384,20.000000 
	C495.447235,20.000000 506.370056,20.000000 517.292908,20.000000 
	C527.216003,20.000000 537.139160,20.000000 547.062256,20.000000 
	C560.817688,20.000000 574.575195,20.134483 588.327515,19.926807 
	C593.118958,19.854452 597.058960,20.147167 597.679260,26.102364 
	C597.744873,26.732513 598.734924,27.266365 599.647827,28.323162 
	C600.333008,30.534290 600.666504,32.267147 601.000000,34.000000 
	C601.000000,36.370556 601.000000,38.741116 600.597778,41.555443 
	C598.888733,41.829578 597.070129,42.150406 596.359680,41.409168 
	C592.327332,37.202003 587.237610,38.004715 582.296814,38.004578 
	C388.531219,37.999191 194.765610,38.000000 1.000000,38.000000 
	C1.000000,32.311958 1.000000,26.623919 1.000000,20.467939 
z"/>
<path fill="#43AAEE" opacity="1.000000" stroke="none" 
	d="
M601.000000,553.000000 
	C601.000000,557.356873 601.000000,561.713806 600.650757,566.609802 
	C598.698730,568.415710 597.169189,570.647583 595.479980,570.775696 
	C589.422913,571.235352 583.311768,570.993591 577.221069,570.997742 
	C565.796082,571.005554 554.371155,571.000000 542.946167,571.000000 
	C530.854553,571.000000 518.762939,571.000000 506.671356,571.000000 
	C495.913025,571.000000 485.154663,571.000000 474.396332,571.000000 
	C465.137970,571.000000 455.879578,571.000000 446.621216,571.000000 
	C434.696228,571.000000 422.771271,571.000000 410.846283,571.000000 
	C401.587921,571.000000 392.329529,571.000000 383.071167,571.000000 
	C370.979523,571.000000 358.887909,571.000000 346.796265,571.000000 
	C337.537903,571.000000 328.279510,571.000000 319.021149,571.000000 
	C307.096161,571.000000 295.171204,571.000000 283.246216,571.000000 
	C271.987885,571.000000 260.729584,571.000000 249.471252,571.000000 
	C241.212921,571.000000 232.952438,571.113708 224.697098,570.956421 
	C219.896606,570.864929 215.100677,570.015625 210.309158,570.070618 
	C197.252747,570.220337 184.201324,570.776001 171.144943,570.967163 
	C160.222321,571.127197 149.295502,571.000000 138.370529,571.000000 
	C129.612152,571.000000 120.853790,571.000000 112.095421,571.000000 
	C99.003830,571.000000 85.912231,571.000122 72.820641,571.000000 
	C61.062351,570.999878 49.303967,570.970642 37.545815,571.010498 
	C30.960958,571.032837 24.366278,570.972900 17.794970,571.314575 
	C12.182607,571.606262 6.597283,572.418152 0.999999,573.000000 
	C1.000000,566.978821 1.000000,560.957703 1.468657,554.468262 
	C72.319305,554.000000 142.701294,554.000000 213.083282,554.000000 
	C223.835617,554.000000 234.587967,554.000000 245.340302,554.000000 
	C359.103058,554.000000 472.865845,554.012146 586.628601,553.957764 
	C591.419189,553.955444 596.209534,553.333374 601.000000,553.000000 
z"/>
<path fill="#47B3F3" opacity="1.000000" stroke="none" 
	d="
M601.000000,584.000000 
	C601.000000,589.662720 601.000000,595.325378 601.000000,600.965942 
	C401.000000,600.965942 201.000000,600.965942 1.000000,600.965942 
	C1.000000,595.935425 1.000000,590.938904 1.468657,585.471191 
	C198.669174,585.000000 395.401031,585.004395 592.132874,584.958435 
	C595.088623,584.957764 598.044312,584.333313 601.000000,584.000000 
z"/>
<path fill="#44ADEF" opacity="1.000000" stroke="none" 
	d="
M601.000000,583.532410 
	C598.044312,584.333313 595.088623,584.957764 592.132874,584.958435 
	C395.401031,585.004395 198.669174,585.000000 1.468657,585.000000 
	C1.000000,581.307068 1.000000,577.614197 0.999999,573.460632 
	C6.597283,572.418152 12.182607,571.606262 17.794970,571.314575 
	C24.366278,570.972900 30.960958,571.032837 37.545815,571.010498 
	C49.303967,570.970642 61.062351,570.999878 72.820641,571.000000 
	C85.912231,571.000122 99.003830,571.000000 112.095421,571.000000 
	C120.853790,571.000000 129.612152,571.000000 138.370529,571.000000 
	C149.295502,571.000000 160.222321,571.127197 171.144943,570.967163 
	C184.201324,570.776001 197.252747,570.220337 210.309158,570.070618 
	C215.100677,570.015625 219.896606,570.864929 224.697098,570.956421 
	C232.952438,571.113708 241.212921,571.000000 249.471252,571.000000 
	C260.729584,571.000000 271.987885,571.000000 283.246216,571.000000 
	C295.171204,571.000000 307.096161,571.000000 319.021149,571.000000 
	C328.279510,571.000000 337.537903,571.000000 346.796265,571.000000 
	C358.887909,571.000000 370.979523,571.000000 383.071167,571.000000 
	C392.329529,571.000000 401.587921,571.000000 410.846283,571.000000 
	C422.771271,571.000000 434.696228,571.000000 446.621216,571.000000 
	C455.879578,571.000000 465.137970,571.000000 474.396332,571.000000 
	C485.154663,571.000000 495.913025,571.000000 506.671356,571.000000 
	C518.762939,571.000000 530.854553,571.000000 542.946167,571.000000 
	C554.371155,571.000000 565.796082,571.005554 577.221069,570.997742 
	C583.311768,570.993591 589.422913,571.235352 595.479980,570.775696 
	C597.169189,570.647583 598.698730,568.415710 600.650757,567.074463 
	C601.000000,572.354919 601.000000,577.709900 601.000000,583.532410 
z"/>
<path fill="#081CAA" opacity="1.000000" stroke="none" 
	d="
M601.000000,65.000000 
	C601.000000,67.700012 601.000000,70.400032 600.633301,73.604591 
	C596.717407,75.072762 593.168884,76.877174 589.619019,76.879623 
	C393.412720,77.015213 197.206360,77.000000 1.000000,77.000000 
	C1.000000,72.643097 1.000000,68.286201 1.449790,63.464649 
	C5.655864,63.515717 9.399790,64.180092 13.172870,64.493752 
	C15.599457,64.695473 18.074892,64.462242 20.517872,64.281334 
	C25.125357,63.940159 29.720610,63.228893 34.329189,63.149410 
	C44.418434,62.975391 54.512890,63.082218 64.605087,63.114956 
	C67.257164,63.123558 70.061478,62.752644 72.532249,63.467377 
	C80.283264,65.709549 87.840691,65.594200 95.603317,63.452229 
	C98.369095,62.689053 101.524849,63.338242 104.502586,63.344257 
	C112.116699,63.359646 119.730812,63.374142 127.344917,63.392635 
	C130.481781,63.400253 133.788345,62.776913 136.722412,63.554661 
	C144.332748,65.571976 151.654831,64.384941 159.313828,63.734966 
	C172.946442,62.578053 186.818634,62.502743 200.444260,63.675472 
	C208.270523,64.349068 215.681854,64.361732 223.510239,63.687252 
	C237.136459,62.513245 250.940933,63.268528 264.666748,63.475391 
	C268.761292,63.537102 272.853363,64.958168 276.927307,64.869705 
	C281.512451,64.770149 286.064758,63.203129 290.650848,63.094105 
	C302.233459,62.818741 313.826996,62.995689 325.416138,63.017017 
	C326.406036,63.018837 327.448547,63.045242 328.376984,63.341286 
	C336.053986,65.789200 343.586639,64.398697 351.422974,63.713852 
	C365.047852,62.523136 378.926575,62.518139 392.551331,63.706829 
	C400.386078,64.390366 407.861572,65.583275 415.622986,63.446507 
	C418.388641,62.685104 421.544495,63.344299 424.522247,63.349628 
	C432.136353,63.363258 439.750458,63.370449 447.364563,63.387272 
	C450.501465,63.394203 453.805634,62.784843 456.742523,63.559605 
	C464.352844,65.567223 471.674774,64.382439 479.333710,63.730812 
	C492.965515,62.571018 506.766327,63.213055 520.491455,63.424263 
	C526.082825,63.510303 532.089050,66.012695 537.151062,64.636620 
	C546.063965,62.213688 554.650269,64.393631 563.349304,64.004707 
	C570.139587,63.701122 576.938965,63.111332 583.720886,63.260300 
	C589.490540,63.387032 595.241028,64.386597 601.000000,65.000000 
z"/>
<path fill="#41A6EC" opacity="1.000000" stroke="none" 
	d="
M601.000000,552.533203 
	C596.209534,553.333374 591.419189,553.955444 586.628601,553.957764 
	C472.865845,554.012146 359.103058,554.000000 245.340302,554.000000 
	C234.587967,554.000000 223.835617,554.000000 213.083282,554.000000 
	C142.701294,554.000000 72.319305,554.000000 1.468657,554.000000 
	C1.000000,549.975464 1.000000,545.950928 1.000000,541.463196 
	C9.714986,541.312988 18.429392,541.849548 27.145128,541.872070 
	C34.859638,541.892029 42.575588,541.339050 50.291035,541.042297 
	C50.956497,541.016663 51.630619,540.943665 52.287773,541.013855 
	C77.914238,543.750671 103.606262,541.221313 129.260208,541.929871 
	C134.956161,542.087219 140.677338,541.084717 146.385712,541.098694 
	C154.102737,541.117554 161.817596,541.792969 169.535278,541.834290 
	C177.254837,541.875671 184.976288,541.461548 192.697906,541.293579 
	C195.007294,541.243347 197.319992,541.370239 199.631317,541.378662 
	C202.577972,541.389465 205.524826,541.344727 208.471451,541.357117 
	C210.941681,541.367493 213.411667,541.426636 215.881790,541.462463 
	C218.510742,541.500488 221.139648,541.555420 223.768738,541.567627 
	C226.556473,541.580566 229.344452,541.543213 232.132233,541.553650 
	C232.452805,541.554810 232.771866,541.796326 233.093124,541.800110 
	C242.593201,541.912720 252.093384,542.017944 261.593750,542.100952 
	C263.423859,542.117004 265.254791,542.004639 267.085358,542.004517 
	C371.519501,541.999451 475.953674,541.951416 580.387573,542.105469 
	C587.623901,542.116150 594.164612,540.816772 600.642578,537.052063 
	C601.000000,542.022095 601.000000,547.044189 601.000000,552.533203 
z"/>
<path fill="#3891E2" opacity="1.000000" stroke="none" 
	d="
M210.285385,489.842255 
	C207.809448,490.561462 205.298859,491.992401 202.863708,491.873840 
	C193.505920,491.418213 184.301559,491.419891 174.907059,492.701416 
	C166.888611,493.795227 158.530426,492.272278 150.318771,492.140747 
	C147.200684,492.090790 143.903931,493.475983 140.981049,492.847321 
	C133.386002,491.213806 125.971565,492.576263 118.449921,492.831329 
	C112.243118,493.041870 105.985161,491.278809 99.751480,491.289917 
	C93.208450,491.301575 86.523911,493.540253 80.156166,492.750336 
	C68.060303,491.249847 56.142334,493.649323 44.158035,492.974152 
	C36.156616,492.523407 28.171560,491.456177 20.172968,491.387390 
	C14.095023,491.335114 8.007293,492.420685 1.461958,493.000000 
	C1.000000,481.979095 1.000000,470.958221 1.448180,459.468658 
	C5.460271,459.556183 9.008724,460.285706 12.593727,460.605438 
	C14.846052,460.806335 17.151747,460.356720 19.436104,460.261414 
	C24.159369,460.064270 28.884026,459.787201 33.608776,459.773468 
	C37.682457,459.761658 41.764214,460.304810 45.829601,460.181335 
	C52.124870,459.990051 58.404854,459.282379 64.700043,459.107025 
	C67.983276,459.015625 71.288864,459.858917 74.577805,459.812836 
	C80.804939,459.725555 87.070885,458.705048 93.241631,459.155518 
	C102.745262,459.849304 112.160637,460.627411 121.662888,459.113708 
	C124.024704,458.737457 126.578255,459.530975 129.039566,459.821594 
	C132.160767,460.190063 135.277939,460.592804 138.396561,460.983032 
	C141.101059,461.321381 143.867996,461.407288 146.496948,462.053741 
	C152.820450,463.608643 159.242493,466.735565 164.737091,459.897278 
	C178.878632,471.844177 194.233505,481.372253 210.285385,489.842255 
z"/>
<path fill="#0719A9" opacity="1.000000" stroke="none" 
	d="
M601.000000,64.545891 
	C595.241028,64.386597 589.490540,63.387032 583.720886,63.260300 
	C576.938965,63.111332 570.139587,63.701122 563.349304,64.004707 
	C554.650269,64.393631 546.063965,62.213688 537.151062,64.636620 
	C532.089050,66.012695 526.082825,63.510303 520.491455,63.424263 
	C506.766327,63.213055 492.965515,62.571018 479.333710,63.730812 
	C471.674774,64.382439 464.352844,65.567223 456.742523,63.559605 
	C453.805634,62.784843 450.501465,63.394203 447.364563,63.387272 
	C439.750458,63.370449 432.136353,63.363258 424.522247,63.349628 
	C421.544495,63.344299 418.388641,62.685104 415.622986,63.446507 
	C407.861572,65.583275 400.386078,64.390366 392.551331,63.706829 
	C378.926575,62.518139 365.047852,62.523136 351.422974,63.713852 
	C343.586639,64.398697 336.053986,65.789200 328.376984,63.341286 
	C327.448547,63.045242 326.406036,63.018837 325.416138,63.017017 
	C313.826996,62.995689 302.233459,62.818741 290.650848,63.094105 
	C286.064758,63.203129 281.512451,64.770149 276.927307,64.869705 
	C272.853363,64.958168 268.761292,63.537102 264.666748,63.475391 
	C250.940933,63.268528 237.136459,62.513245 223.510239,63.687252 
	C215.681854,64.361732 208.270523,64.349068 200.444260,63.675472 
	C186.818634,62.502743 172.946442,62.578053 159.313828,63.734966 
	C151.654831,64.384941 144.332748,65.571976 136.722412,63.554661 
	C133.788345,62.776913 130.481781,63.400253 127.344917,63.392635 
	C119.730812,63.374142 112.116699,63.359646 104.502586,63.344257 
	C101.524849,63.338242 98.369095,62.689053 95.603317,63.452229 
	C87.840691,65.594200 80.283264,65.709549 72.532249,63.467377 
	C70.061478,62.752644 67.257164,63.123558 64.605087,63.114956 
	C54.512890,63.082218 44.418434,62.975391 34.329189,63.149410 
	C29.720610,63.228893 25.125357,63.940159 20.517872,64.281334 
	C18.074892,64.462242 15.599457,64.695473 13.172870,64.493752 
	C9.399790,64.180092 5.655864,63.515717 1.449790,63.000000 
	C1.000000,60.299988 1.000000,57.599972 1.468657,54.449982 
	C175.677292,54.000000 349.417297,53.958794 523.157227,54.044598 
	C549.104919,54.057411 575.052429,54.666668 601.000000,55.000000 
	C601.000000,58.030594 601.000000,61.061188 601.000000,64.545891 
z"/>
<path fill="#0A22AC" opacity="1.000000" stroke="none" 
	d="
M1.000000,94.000000 
	C1.000000,91.299950 1.000000,88.599899 1.468657,85.449921 
	C154.601364,85.000000 307.266266,84.716461 459.928955,85.169342 
	C506.947693,85.308830 554.031128,82.477005 601.000000,87.000000 
	C601.000000,88.714424 601.000000,90.428841 600.593262,92.569489 
	C596.167053,92.330467 592.154419,91.169594 588.126343,91.113228 
	C581.674805,91.022934 575.215637,91.837860 568.754639,91.936157 
	C564.471985,92.001305 560.180786,91.287926 555.892883,91.281128 
	C551.596191,91.274315 547.294861,91.965294 543.002563,91.899437 
	C535.419861,91.783081 527.840759,91.033714 520.263245,91.077614 
	C509.049805,91.142563 497.840881,91.836647 486.626740,91.957893 
	C471.426300,92.122253 456.222717,92.011490 441.020508,91.990463 
	C435.929535,91.983421 430.838379,91.911308 425.747864,91.830940 
	C416.328888,91.682236 406.910492,91.496712 397.491516,91.346054 
	C394.848022,91.303772 392.203430,91.331673 389.559357,91.323799 
	C383.788605,91.306602 378.011841,91.447411 372.248596,91.229973 
	C364.158752,90.924759 355.778412,89.225632 349.575684,97.177902 
	C348.467133,97.024055 347.730042,96.907722 346.923615,96.447899 
	C345.236542,93.254768 343.178894,93.396286 340.454041,95.215332 
	C338.357391,95.134850 336.679840,95.063744 334.895447,94.634018 
	C331.529572,93.831406 328.270447,93.387421 324.577087,92.954773 
	C322.122009,92.899117 320.101135,92.832130 317.926727,92.417061 
	C313.867126,91.971405 309.961060,91.873833 305.598083,91.825577 
	C302.076141,91.844406 299.011139,91.813904 295.629639,91.549225 
	C291.843201,91.772278 288.373230,92.229523 284.477478,92.758636 
	C282.032104,92.873604 280.012543,92.916695 277.786499,92.736160 
	C276.712280,92.723686 275.844543,92.934837 274.587585,93.172195 
	C271.131012,93.792679 268.063660,94.386971 264.716919,94.728043 
	C261.954529,94.649048 259.471527,94.823273 256.658508,94.814255 
	C254.976257,94.090958 253.606430,93.047363 252.274551,93.093719 
	C244.471436,93.365311 236.882523,94.897583 228.820206,93.912025 
	C220.320221,92.872963 211.492233,94.891235 202.806015,94.911331 
	C190.700699,94.939354 178.594788,94.144730 166.487579,94.097565 
	C157.785568,94.063660 149.079834,94.966942 140.377914,94.930824 
	C127.771553,94.878494 115.168098,94.163681 102.561577,94.101257 
	C94.359261,94.060638 86.155640,94.751137 77.948738,94.967346 
	C74.030190,95.070580 70.103027,94.796875 66.179115,94.755516 
	C54.729176,94.634796 43.277069,94.631157 31.829975,94.386703 
	C28.715210,94.320183 25.193125,92.401978 22.588938,93.347298 
	C15.309468,95.989708 8.214952,94.827286 1.000000,94.000000 
z"/>
<path fill="#091FAC" opacity="1.000000" stroke="none" 
	d="
M601.000000,86.536819 
	C554.031128,82.477005 506.947693,85.308830 459.928955,85.169342 
	C307.266266,84.716461 154.601364,85.000000 1.468657,85.000000 
	C1.000000,82.629440 1.000000,80.258888 1.000000,77.444168 
	C197.206360,77.000000 393.412720,77.015213 589.619019,76.879623 
	C593.168884,76.877174 596.717407,75.072762 600.633301,74.054565 
	C601.000000,78.024544 601.000000,82.049088 601.000000,86.536819 
z"/>
<path fill="#1131B4" opacity="1.000000" stroke="none" 
	d="
M1.000000,158.000000 
	C1.000000,149.312439 1.000000,140.624863 1.427999,131.465637 
	C7.142089,130.662643 12.427749,130.051804 17.714340,130.043625 
	C65.806046,129.969269 113.897957,130.029160 161.989655,129.954788 
	C166.785187,129.947372 171.719513,128.718643 175.200806,133.423798 
	C174.144348,134.167969 173.268860,134.653946 172.028168,135.143997 
	C171.138046,135.824753 170.613113,136.501419 169.926025,137.470444 
	C160.548340,146.613342 151.332840,155.463913 142.087341,163.882141 
	C142.455856,159.201431 140.133224,157.955444 136.321716,157.977631 
	C124.432915,158.046814 112.543106,157.955994 100.654556,158.044846 
	C98.363777,158.061935 96.068565,158.927017 93.789673,158.866211 
	C76.243050,158.398041 58.703148,157.541092 41.154709,157.322388 
	C27.774700,157.155640 14.385250,157.746292 1.000000,158.000000 
z"/>
<path fill="#3487DE" opacity="1.000000" stroke="none" 
	d="
M601.000000,425.000000 
	C601.000000,436.020905 601.000000,447.041779 600.571045,458.531342 
	C598.325928,458.885864 596.014587,459.443787 594.783081,458.536255 
	C590.446716,455.340790 585.626831,456.014618 580.863342,456.011719 
	C545.257690,455.990204 509.650299,455.815613 474.047791,456.150269 
	C466.623932,456.220062 459.217560,458.204987 451.805817,459.325409 
	C451.493134,459.372681 451.201477,459.591522 450.911377,459.751099 
	C446.618683,462.111938 442.698944,460.744629 439.025330,458.282990 
	C448.101593,448.664795 457.013275,439.314819 466.218750,430.188721 
	C470.931427,433.255066 475.331696,430.373749 479.740356,430.319794 
	C480.058929,430.315887 480.612366,429.627289 480.646027,429.222900 
	C481.069916,424.127014 484.852417,425.007507 488.098083,425.006592 
	C525.732056,424.996277 563.366028,425.000000 601.000000,425.000000 
z"/>
<path fill="#143BB7" opacity="1.000000" stroke="none" 
	d="
M1.000000,158.468658 
	C14.385250,157.746292 27.774700,157.155640 41.154709,157.322388 
	C58.703148,157.541092 76.243050,158.398041 93.789673,158.866211 
	C96.068565,158.927017 98.363777,158.061935 100.654556,158.044846 
	C112.543106,157.955994 124.432915,158.046814 136.321716,157.977631 
	C140.133224,157.955444 142.455856,159.201431 141.949188,164.171204 
	C138.905594,168.664856 135.784134,172.308762 133.073868,176.236420 
	C127.656006,184.087845 122.463455,192.094772 116.897400,199.800873 
	C116.759689,198.184967 116.531898,196.619354 117.114281,195.461136 
	C118.898949,191.911865 117.415611,191.049896 114.088303,190.977264 
	C101.648102,190.705811 89.211838,190.207718 76.770767,190.036118 
	C64.704086,189.869675 52.631958,189.892776 40.564896,190.044815 
	C34.443981,190.121918 28.316921,191.073776 22.214417,190.893417 
	C15.130479,190.684036 8.070422,189.666656 1.000000,189.000000 
	C1.000000,178.979111 1.000000,168.958206 1.000000,158.468658 
z"/>
<path fill="#3588DE" opacity="1.000000" stroke="none" 
	d="
M164.444031,459.765106 
	C159.242493,466.735565 152.820450,463.608643 146.496948,462.053741 
	C143.867996,461.407288 141.101059,461.321381 138.396561,460.983032 
	C135.277939,460.592804 132.160767,460.190063 129.039566,459.821594 
	C126.578255,459.530975 124.024704,458.737457 121.662888,459.113708 
	C112.160637,460.627411 102.745262,459.849304 93.241631,459.155518 
	C87.070885,458.705048 80.804939,459.725555 74.577805,459.812836 
	C71.288864,459.858917 67.983276,459.015625 64.700043,459.107025 
	C58.404854,459.282379 52.124870,459.990051 45.829601,460.181335 
	C41.764214,460.304810 37.682457,459.761658 33.608776,459.773468 
	C28.884026,459.787201 24.159369,460.064270 19.436104,460.261414 
	C17.151747,460.356720 14.846052,460.806335 12.593727,460.605438 
	C9.008724,460.285706 5.460271,459.556183 1.448180,459.000000 
	C1.000000,449.979095 1.000000,440.958221 1.450938,431.468658 
	C11.445451,431.035156 20.989006,431.091492 30.532602,431.100403 
	C44.112133,431.113037 57.692318,431.010742 71.270996,431.115936 
	C78.485657,431.171783 85.696144,431.645996 92.911324,431.781647 
	C105.406029,432.016571 117.917015,431.854950 130.389832,432.482483 
	C133.882355,432.658234 135.002136,431.983612 135.361618,428.985229 
	C145.255493,439.354462 154.849762,449.559784 164.444031,459.765106 
z"/>
<path fill="#0E2BB1" opacity="1.000000" stroke="none" 
	d="
M175.381790,133.165588 
	C171.719513,128.718643 166.785187,129.947372 161.989655,129.954788 
	C113.897957,130.029160 65.806046,129.969269 17.714340,130.043625 
	C12.427749,130.051804 7.142089,130.662643 1.427999,130.996979 
	C1.000000,123.979050 1.000000,116.958107 1.468657,109.468582 
	C14.047263,108.669815 26.157398,108.072861 38.267109,108.081337 
	C51.467449,108.090576 64.665878,108.770149 77.867973,108.954269 
	C89.439247,109.115646 101.014442,108.997589 112.587906,108.999390 
	C126.324562,109.001518 140.061768,109.070412 153.797607,108.964775 
	C159.247925,108.922859 164.692978,108.364037 170.144455,108.266220 
	C177.399399,108.136063 184.659851,108.318604 191.914993,108.194633 
	C198.505234,108.082016 205.224380,106.903534 210.841721,111.516823 
	C206.064240,114.094749 201.344482,116.135826 197.025299,118.821182 
	C189.678070,123.389160 182.582886,128.362549 175.381790,133.165588 
z"/>
<path fill="#0D27AF" opacity="1.000000" stroke="none" 
	d="
M601.000000,102.000000 
	C601.000000,107.022095 601.000000,112.044182 600.576660,117.533096 
	C596.037048,117.999901 591.920715,117.999878 587.804443,117.999878 
	C540.033630,117.999886 492.262756,118.015488 444.491974,117.964218 
	C441.369995,117.960869 437.668335,116.239372 435.241913,117.406914 
	C429.338684,120.247429 423.310974,119.716927 417.234375,120.204659 
	C415.742523,120.324402 414.423462,122.596840 412.695068,123.786621 
	C402.574005,118.483383 392.782867,113.273125 383.006226,107.704361 
	C383.750793,106.765457 384.472870,105.699814 385.212372,105.687607 
	C388.648743,105.630852 392.144379,106.278648 395.508301,105.835571 
	C397.406891,105.585503 400.493927,103.848633 400.621094,102.545021 
	C401.081818,97.821899 403.951508,97.976509 407.298462,97.978165 
	C468.099335,98.008209 528.900208,98.006645 589.701111,97.979881 
	C592.614624,97.978600 595.269653,97.884346 596.833130,101.206223 
	C597.186951,101.958008 599.557678,101.760521 601.000000,102.000000 
z"/>
<path fill="#2D74D5" opacity="1.000000" stroke="none" 
	d="
M601.000000,356.000000 
	C601.000000,369.354218 601.000000,382.708466 600.565247,396.531372 
	C596.085022,397.666260 592.042480,398.888702 587.993591,398.910126 
	C557.385559,399.072205 526.776184,398.977570 496.167389,399.027466 
	C492.688690,399.033142 489.210632,399.437225 485.790833,399.316833 
	C491.554321,384.977570 497.259247,370.978027 503.236023,357.189026 
	C507.065826,360.929230 510.769623,363.772308 515.962036,360.250000 
	C516.329407,360.000824 516.928162,360.048004 517.421326,360.035522 
	C531.185425,359.686951 544.949585,359.333954 558.714844,359.035004 
	C559.850891,359.010315 560.990295,359.466827 562.136719,359.522125 
	C565.099426,359.664917 568.066406,359.746094 571.032532,359.780579 
	C573.953918,359.814545 576.879150,359.838135 579.797668,359.730530 
	C587.031921,359.463837 594.720215,361.705688 601.000000,356.000000 
z"/>
<path fill="#3280DB" opacity="1.000000" stroke="none" 
	d="
M135.062027,428.821289 
	C135.002136,431.983612 133.882355,432.658234 130.389832,432.482483 
	C117.917015,431.854950 105.406029,432.016571 92.911324,431.781647 
	C85.696144,431.645996 78.485657,431.171783 71.270996,431.115936 
	C57.692318,431.010742 44.112133,431.113037 30.532602,431.100403 
	C20.989006,431.091492 11.445451,431.035156 1.450938,431.000000 
	C1.000000,420.979095 1.000000,410.958221 1.468657,400.468658 
	C35.368092,400.000000 68.798866,400.007690 102.229637,399.991516 
	C107.140259,399.989136 112.229721,397.250793 117.006546,401.123230 
	C117.132797,401.247101 117.163254,401.599091 117.126450,401.984100 
	C117.751839,403.232391 118.414040,404.095703 119.346558,405.163757 
	C124.765259,413.186096 129.913635,421.003693 135.062027,428.821289 
z"/>
<path fill="#3890E1" opacity="1.000000" stroke="none" 
	d="
M438.860779,458.551208 
	C442.698944,460.744629 446.618683,462.111938 450.911377,459.751099 
	C451.201477,459.591522 451.493134,459.372681 451.805817,459.325409 
	C459.217560,458.204987 466.623932,456.220062 474.047791,456.150269 
	C509.650299,455.815613 545.257690,455.990204 580.863342,456.011719 
	C585.626831,456.014618 590.446716,455.340790 594.783081,458.536255 
	C596.014587,459.443787 598.325928,458.885864 600.571045,459.000000 
	C601.000000,465.021149 601.000000,471.042297 600.601990,477.592102 
	C594.801880,478.413849 589.400146,478.954102 583.997681,478.961395 
	C535.112732,479.027313 486.227325,479.073792 437.342773,478.909088 
	C431.048035,478.887878 424.757477,477.629883 418.332764,476.930420 
	C413.750702,484.058014 411.298065,485.181763 405.129822,482.617615 
	C416.504333,474.411743 427.682556,466.481476 438.860779,458.551208 
z"/>
<path fill="#1944BD" opacity="1.000000" stroke="none" 
	d="
M601.000000,192.000000 
	C601.000000,203.354233 601.000000,214.708450 600.653687,226.573975 
	C598.469421,226.613754 596.631470,226.142242 594.793518,225.670715 
	C592.332458,225.305038 589.607300,225.944260 586.879822,225.954025 
	C564.243835,226.035202 541.602722,225.752304 518.974792,226.186752 
	C513.780640,226.286453 507.714935,225.781265 504.388489,229.840439 
	C501.943390,230.471008 500.379822,230.874222 498.566589,231.013550 
	C493.476746,219.955490 488.636536,209.161316 483.845337,197.953522 
	C483.446136,191.000931 484.419983,190.208160 490.855286,191.136414 
	C494.451569,191.655167 498.111847,191.955902 501.744141,191.963837 
	C531.235229,192.028214 560.726562,192.000000 590.217834,192.000000 
	C593.811890,192.000000 597.405945,192.000000 601.000000,192.000000 
z"/>
<path fill="#2D76D6" opacity="1.000000" stroke="none" 
	d="
M116.880295,400.999359 
	C112.229721,397.250793 107.140259,399.989136 102.229637,399.991516 
	C68.798866,400.007690 35.368092,400.000000 1.468657,400.000000 
	C1.000000,388.645782 1.000000,377.291534 1.466290,365.468689 
	C6.258580,364.940277 10.932319,365.914673 14.836906,364.601715 
	C22.542662,362.010559 29.833687,363.174683 37.385181,364.521240 
	C40.420280,365.062469 43.639236,364.635681 46.771969,364.553070 
	C53.152584,364.384796 59.531143,364.009796 65.911186,363.994904 
	C70.025642,363.985321 74.524071,365.646149 78.172028,364.464325 
	C84.616508,362.376526 90.610680,363.436188 96.823326,364.421844 
	C98.274506,364.652130 99.766083,364.627808 101.223877,364.764038 
	C101.208679,364.807465 101.122978,364.833710 101.170303,365.058594 
	C101.342400,365.575012 101.542259,365.799713 101.960419,366.319336 
	C102.212990,367.491913 102.138229,368.385376 102.459358,369.101196 
	C107.235542,379.747742 112.064102,390.370758 116.880295,400.999359 
z"/>
<path fill="#143CB8" opacity="1.000000" stroke="none" 
	d="
M601.000000,191.531372 
	C597.405945,192.000000 593.811890,192.000000 590.217834,192.000000 
	C560.726562,192.000000 531.235229,192.028214 501.744141,191.963837 
	C498.111847,191.955902 494.451569,191.655167 490.855286,191.136414 
	C484.419983,190.208160 483.446136,191.000931 483.579041,197.723907 
	C478.214050,190.430161 473.195190,182.931320 468.101105,175.483917 
	C465.698273,171.971115 463.151123,168.557022 461.055573,164.944672 
	C466.841858,164.207001 472.232117,163.497253 477.644806,163.074203 
	C483.006256,162.655136 488.388031,162.430664 493.765228,162.298294 
	C498.059906,162.192596 502.361908,162.317657 506.659149,162.409882 
	C509.123901,162.462769 511.584717,162.737991 514.048950,162.765533 
	C518.635925,162.816833 523.224060,162.736404 527.811646,162.753708 
	C537.030273,162.788452 546.249756,162.949524 555.466980,162.860474 
	C559.751282,162.819077 564.027100,162.195969 568.314026,162.053558 
	C572.719604,161.907196 577.137085,161.920563 581.543640,162.054108 
	C587.123901,162.223221 593.463135,160.358337 596.611511,167.610062 
	C596.890991,168.253784 599.482361,167.893814 601.000000,168.000000 
	C601.000000,175.687576 601.000000,183.375168 601.000000,191.531372 
z"/>
<path fill="#296CD0" opacity="1.000000" stroke="none" 
	d="
M101.239082,364.720581 
	C99.766083,364.627808 98.274506,364.652130 96.823326,364.421844 
	C90.610680,363.436188 84.616508,362.376526 78.172028,364.464325 
	C74.524071,365.646149 70.025642,363.985321 65.911186,363.994904 
	C59.531143,364.009796 53.152584,364.384796 46.771969,364.553070 
	C43.639236,364.635681 40.420280,365.062469 37.385181,364.521240 
	C29.833687,363.174683 22.542662,362.010559 14.836906,364.601715 
	C10.932319,365.914673 6.258580,364.940277 1.466290,365.000000 
	C1.000000,351.645782 1.000000,338.291534 1.468657,324.468658 
	C27.162489,324.000000 52.389587,323.837280 77.611244,324.135284 
	C82.744507,324.195923 87.857277,325.990936 93.089340,327.299683 
	C93.206963,328.052277 93.214752,328.491669 92.959137,329.115417 
	C93.069191,330.195129 93.442650,331.090454 93.960083,332.370483 
	C96.482399,343.410339 98.860741,354.065460 101.239082,364.720581 
z"/>
<path fill="#1D4FC3" opacity="1.000000" stroke="none" 
	d="
M498.816254,231.277451 
	C500.379822,230.874222 501.943390,230.471008 504.388489,229.840439 
	C507.714935,225.781265 513.780640,226.286453 518.974792,226.186752 
	C541.602722,225.752304 564.243835,226.035202 586.879822,225.954025 
	C589.607300,225.944260 592.332458,225.305038 594.793518,225.670715 
	C596.631470,226.142242 598.469421,226.613754 600.653687,227.042633 
	C601.000000,239.687561 601.000000,252.375122 600.647217,265.575500 
	C599.022278,266.130798 597.719727,266.370483 596.483582,266.179810 
	C592.306519,265.535492 588.156433,264.145020 583.989624,264.120392 
	C574.572388,264.064636 565.150452,264.939362 555.732056,264.910919 
	C543.491028,264.873962 531.250793,264.130402 519.012085,264.175629 
	C516.700256,264.184143 514.135254,266.145264 512.173340,267.786591 
	C510.642303,269.067413 509.865265,271.249542 508.529236,272.727905 
	C505.257111,259.278198 502.208954,246.131729 499.377777,232.960266 
	C499.787506,232.757660 499.980225,232.580063 500.172974,232.402435 
	C499.778046,232.274170 499.383087,232.145905 498.900787,231.842896 
	C498.813416,231.668182 498.816254,231.277451 498.816254,231.277451 
z"/>
<path fill="#0414A8" opacity="1.000000" stroke="none" 
	d="
M1.000000,38.428463 
	C194.765610,38.000000 388.531219,37.999191 582.296814,38.004578 
	C587.237610,38.004715 592.327332,37.202003 596.359680,41.409168 
	C597.070129,42.150406 598.888733,41.829578 600.597778,41.999611 
	C601.000000,43.066669 601.000000,44.133339 600.645996,45.645332 
	C599.014282,46.129932 597.708618,46.358418 596.463989,46.174320 
	C592.081116,45.526054 587.739929,44.310074 583.344604,44.096153 
	C576.075684,43.742363 568.777100,44.000000 561.490967,44.000000 
	C540.255615,44.000000 519.020203,44.000000 497.784851,44.000000 
	C476.382904,44.000000 454.980957,44.000000 433.579010,44.000000 
	C412.177063,44.000000 390.775085,44.000000 369.373138,44.000000 
	C348.304352,44.000000 327.235535,44.000000 306.166748,44.000000 
	C284.598206,44.000000 263.029694,44.000000 241.461151,44.000000 
	C220.392365,44.000000 199.323563,44.000000 178.254776,44.000000 
	C156.686249,44.000000 135.117706,44.000000 113.549171,44.000000 
	C92.147217,44.000000 70.745262,44.000000 49.343307,44.000000 
	C33.228870,44.000000 17.114435,44.000000 1.000000,44.000000 
	C1.000000,42.285641 1.000000,40.571285 1.000000,38.428463 
z"/>
<path fill="#245FCA" opacity="1.000000" stroke="none" 
	d="
M92.979485,326.986450 
	C87.857277,325.990936 82.744507,324.195923 77.611244,324.135284 
	C52.389587,323.837280 27.162489,324.000000 1.468657,324.000000 
	C1.000000,311.645782 1.000000,299.291534 1.467868,286.468658 
	C6.753188,285.965271 11.656135,286.503174 16.373617,285.798859 
	C39.514404,282.343933 62.673897,284.032410 85.838646,285.061310 
	C88.533150,285.181000 89.973785,286.492798 90.049225,289.476898 
	C90.220634,296.256622 90.612404,303.032715 91.034630,309.802795 
	C91.143349,311.546143 91.697075,313.261749 92.134232,315.395996 
	C92.474548,319.530090 92.727013,323.258270 92.979485,326.986450 
z"/>
<path fill="#1843BC" opacity="1.000000" stroke="none" 
	d="
M1.000000,189.468658 
	C8.070422,189.666656 15.130479,190.684036 22.214417,190.893417 
	C28.316921,191.073776 34.443981,190.121918 40.564896,190.044815 
	C52.631958,189.892776 64.704086,189.869675 76.770767,190.036118 
	C89.211838,190.207718 101.648102,190.705811 114.088303,190.977264 
	C117.415611,191.049896 118.898949,191.911865 117.114281,195.461136 
	C116.531898,196.619354 116.759689,198.184967 116.855179,200.094391 
	C116.769371,201.099411 116.445312,201.574295 115.755028,202.111633 
	C114.950699,203.486160 114.512596,204.798233 114.024902,206.464508 
	C111.102783,212.908539 108.230263,218.998367 105.041656,224.863251 
	C103.469383,223.762726 102.282600,222.270523 100.944809,222.119949 
	C95.614395,221.519974 90.234436,221.017639 84.877357,221.059464 
	C66.693672,221.201416 48.512623,221.740768 30.329166,221.824615 
	C20.554253,221.869690 10.776482,221.295029 1.000000,221.000000 
	C1.000000,210.645767 1.000000,200.291550 1.000000,189.468658 
z"/>
<path fill="#0C25AE" opacity="1.000000" stroke="none" 
	d="
M211.079605,111.269760 
	C205.224380,106.903534 198.505234,108.082016 191.914993,108.194633 
	C184.659851,108.318604 177.399399,108.136063 170.144455,108.266220 
	C164.692978,108.364037 159.247925,108.922859 153.797607,108.964775 
	C140.061768,109.070412 126.324562,109.001518 112.587906,108.999390 
	C101.014442,108.997589 89.439247,109.115646 77.867973,108.954269 
	C64.665878,108.770149 51.467449,108.090576 38.267109,108.081337 
	C26.157398,108.072861 14.047263,108.669815 1.468657,109.000000 
	C1.000000,104.310745 1.000000,99.621490 1.000000,94.466118 
	C8.214952,94.827286 15.309468,95.989708 22.588938,93.347298 
	C25.193125,92.401978 28.715210,94.320183 31.829975,94.386703 
	C43.277069,94.631157 54.729176,94.634796 66.179115,94.755516 
	C70.103027,94.796875 74.030190,95.070580 77.948738,94.967346 
	C86.155640,94.751137 94.359261,94.060638 102.561577,94.101257 
	C115.168098,94.163681 127.771553,94.878494 140.377914,94.930824 
	C149.079834,94.966942 157.785568,94.063660 166.487579,94.097565 
	C178.594788,94.144730 190.700699,94.939354 202.806015,94.911331 
	C211.492233,94.891235 220.320221,92.872963 228.820206,93.912025 
	C236.882523,94.897583 244.471436,93.365311 252.274551,93.093719 
	C253.606430,93.047363 254.976257,94.090958 256.649231,95.090942 
	C256.945465,95.917160 256.921051,96.283463 256.541870,96.748367 
	C255.453278,96.880287 254.719406,96.913612 253.727417,96.706192 
	C250.989761,95.671669 248.810852,95.612793 247.610474,98.801979 
	C246.852371,98.889626 246.415146,98.905968 245.715424,98.684158 
	C240.290573,100.254242 235.128204,102.062477 229.665207,104.092102 
	C223.269592,106.632240 217.174591,108.951004 211.079605,111.269760 
z"/>
<path fill="#317FDA" opacity="1.000000" stroke="none" 
	d="
M485.732300,399.656555 
	C489.210632,399.437225 492.688690,399.033142 496.167389,399.027466 
	C526.776184,398.977570 557.385559,399.072205 587.993591,398.910126 
	C592.042480,398.888702 596.085022,397.666260 600.565247,397.000000 
	C601.000000,406.020905 601.000000,415.041779 601.000000,424.531342 
	C563.366028,425.000000 525.732056,424.996277 488.098083,425.006592 
	C484.852417,425.007507 481.069916,424.127014 480.646027,429.222900 
	C480.612366,429.627289 480.058929,430.315887 479.740356,430.319794 
	C475.331696,430.373749 470.931427,433.255066 466.330322,429.868530 
	C472.082001,420.539093 478.015869,411.753723 484.185059,402.809631 
	C484.622711,402.134766 484.825012,401.618591 485.014771,401.062836 
	C485.002167,401.023254 485.082001,401.000244 485.276581,400.850006 
	C485.707489,400.448242 485.831879,400.149994 485.797363,399.782227 
	C485.750366,399.759430 485.732300,399.656555 485.732300,399.656555 
z"/>
<path fill="#296BD0" opacity="1.000000" stroke="none" 
	d="
M601.000000,355.531342 
	C594.720215,361.705688 587.031921,359.463837 579.797668,359.730530 
	C576.879150,359.838135 573.953918,359.814545 571.032532,359.780579 
	C568.066406,359.746094 565.099426,359.664917 562.136719,359.522125 
	C560.990295,359.466827 559.850891,359.010315 558.714844,359.035004 
	C544.949585,359.333954 531.185425,359.686951 517.421326,360.035522 
	C516.928162,360.048004 516.329407,360.000824 515.962036,360.250000 
	C510.769623,363.772308 507.065826,360.929230 503.210449,356.785583 
	C504.652588,348.112274 506.392212,340.052887 508.484863,331.884033 
	C509.195221,331.252014 509.884857,330.712402 509.859009,330.209595 
	C509.565216,324.498718 513.168152,324.692841 517.144043,325.213440 
	C519.927307,325.577850 522.734619,325.940063 525.534180,325.964905 
	C535.612366,326.054230 545.691895,325.999969 555.770874,326.000000 
	C567.589600,326.000000 579.408264,326.000031 591.226990,326.000061 
	C594.484680,326.000061 597.742310,326.000031 601.000000,326.000000 
	C601.000000,335.687561 601.000000,345.375122 601.000000,355.531342 
z"/>
<path fill="#1C4CC2" opacity="1.000000" stroke="none" 
	d="
M1.000000,221.468658 
	C10.776482,221.295029 20.554253,221.869690 30.329166,221.824615 
	C48.512623,221.740768 66.693672,221.201416 84.877357,221.059464 
	C90.234436,221.017639 95.614395,221.519974 100.944809,222.119949 
	C102.282600,222.270523 103.469383,223.762726 104.992088,225.240631 
	C105.093826,226.584793 104.929054,227.326630 104.591759,228.224274 
	C104.218788,228.634537 104.112175,228.923660 104.054871,229.615143 
	C102.184868,235.675354 100.359406,241.367874 98.177673,247.241211 
	C97.572510,248.698532 97.323624,249.975021 97.120880,251.439240 
	C97.167015,251.626968 97.030602,251.988724 96.600693,251.994995 
	C90.885048,252.334183 85.601433,252.907608 80.313164,252.954163 
	C65.413841,253.085358 50.511189,253.126389 35.612587,252.959274 
	C24.072922,252.829834 12.537376,252.333328 1.000000,252.000000 
	C1.000000,241.979111 1.000000,231.958206 1.000000,221.468658 
z"/>
<path fill="#0618A8" opacity="1.000000" stroke="none" 
	d="
M601.000000,54.562500 
	C575.052429,54.666668 549.104919,54.057411 523.157227,54.044598 
	C349.417297,53.958794 175.677292,54.000000 1.468657,54.000000 
	C1.000000,52.285641 1.000000,50.571285 1.414937,48.430931 
	C8.049150,48.336620 14.266565,48.905529 20.488064,48.954369 
	C37.410561,49.087208 54.334785,48.999996 71.258324,49.000000 
	C82.183640,49.000000 93.108955,49.000000 104.034271,49.000000 
	C114.626350,49.000000 125.218437,49.000000 135.810516,49.000000 
	C146.569214,49.000000 157.327927,49.000000 168.086624,49.000000 
	C178.678711,49.000000 189.270782,49.000000 199.862869,49.000000 
	C210.621567,49.000000 221.380280,49.000000 232.138977,49.000000 
	C242.731064,49.000000 253.323135,49.000000 263.915222,49.000000 
	C274.673920,49.000000 285.432617,49.000000 296.191315,49.000000 
	C306.783386,49.000000 317.375488,49.000000 327.967560,49.000000 
	C338.726257,49.000000 349.484955,49.000000 360.243652,49.000000 
	C370.835724,49.000000 381.427826,49.000000 392.019897,49.000000 
	C402.611969,49.000000 413.204071,49.000000 423.796143,49.000000 
	C434.721466,49.000000 445.646790,49.000000 456.572113,49.000000 
	C467.830658,49.000000 479.089203,49.000008 490.347748,48.999996 
	C498.773804,48.999989 507.199860,48.999950 515.625916,48.999947 
	C531.882996,48.999943 548.140198,49.030167 564.397034,48.973545 
	C567.515564,48.962688 570.688965,48.139778 573.740112,48.503811 
	C582.875000,49.593674 591.933228,49.211369 601.000000,48.000000 
	C601.000000,50.041668 601.000000,52.083332 601.000000,54.562500 
z"/>
<path fill="#2055C5" opacity="1.000000" stroke="none" 
	d="
M1.000000,252.468658 
	C12.537376,252.333328 24.072922,252.829834 35.612587,252.959274 
	C50.511189,253.126389 65.413841,253.085358 80.313164,252.954163 
	C85.601433,252.907608 90.885048,252.334183 96.638412,252.416000 
	C92.579895,273.319366 91.349197,294.076263 92.046371,314.990082 
	C91.697075,313.261749 91.143349,311.546143 91.034630,309.802795 
	C90.612404,303.032715 90.220634,296.256622 90.049225,289.476898 
	C89.973785,286.492798 88.533150,285.181000 85.838646,285.061310 
	C62.673897,284.032410 39.514404,282.343933 16.373617,285.798859 
	C11.656135,286.503174 6.753188,285.965271 1.467868,286.000000 
	C1.000000,274.979095 1.000000,263.958221 1.000000,252.468658 
z"/>
<path fill="#2159C7" opacity="1.000000" stroke="none" 
	d="
M508.753174,273.031158 
	C509.865265,271.249542 510.642303,269.067413 512.173340,267.786591 
	C514.135254,266.145264 516.700256,264.184143 519.012085,264.175629 
	C531.250793,264.130402 543.491028,264.873962 555.732056,264.910919 
	C565.150452,264.939362 574.572388,264.064636 583.989624,264.120392 
	C588.156433,264.145020 592.306519,265.535492 596.483582,266.179810 
	C597.719727,266.370483 599.022278,266.130798 600.647217,266.044128 
	C601.000000,276.687561 601.000000,287.375122 600.639526,298.579773 
	C598.741394,299.044830 596.875061,299.540985 595.721130,298.849121 
	C589.661011,295.215515 582.822937,295.073303 576.173828,294.084503 
	C575.452942,293.977325 574.647888,294.638458 573.852722,294.794739 
	C569.227173,295.703827 564.604858,297.207550 559.958740,297.294617 
	C553.392944,297.417633 546.801392,296.550781 540.231934,295.979462 
	C534.495972,295.480591 528.782593,294.715973 523.044678,294.246674 
	C520.293152,294.021606 517.507996,294.207886 514.959961,294.207886 
	C514.562012,296.188843 514.700867,298.711182 513.869202,299.087219 
	C510.074951,300.802979 511.247437,303.949402 510.980377,306.758270 
	C510.781830,308.846863 510.371002,310.915283 509.999786,312.527496 
	C509.547607,299.051941 509.150391,286.041534 508.753174,273.031158 
z"/>
<path fill="#0616A9" opacity="1.000000" stroke="none" 
	d="
M601.000000,47.666668 
	C591.933228,49.211369 582.875000,49.593674 573.740112,48.503811 
	C570.688965,48.139778 567.515564,48.962688 564.397034,48.973545 
	C548.140198,49.030167 531.882996,48.999943 515.625916,48.999947 
	C507.199860,48.999950 498.773804,48.999989 490.347748,48.999996 
	C479.089203,49.000008 467.830658,49.000000 456.572113,49.000000 
	C445.646790,49.000000 434.721466,49.000000 423.796143,49.000000 
	C413.204071,49.000000 402.611969,49.000000 392.019897,49.000000 
	C381.427826,49.000000 370.835724,49.000000 360.243652,49.000000 
	C349.484955,49.000000 338.726257,49.000000 327.967560,49.000000 
	C317.375488,49.000000 306.783386,49.000000 296.191315,49.000000 
	C285.432617,49.000000 274.673920,49.000000 263.915222,49.000000 
	C253.323135,49.000000 242.731064,49.000000 232.138977,49.000000 
	C221.380280,49.000000 210.621567,49.000000 199.862869,49.000000 
	C189.270782,49.000000 178.678711,49.000000 168.086624,49.000000 
	C157.327927,49.000000 146.569214,49.000000 135.810516,49.000000 
	C125.218437,49.000000 114.626350,49.000000 104.034271,49.000000 
	C93.108955,49.000000 82.183640,49.000000 71.258324,49.000000 
	C54.334785,48.999996 37.410561,49.087208 20.488064,48.954369 
	C14.266565,48.905529 8.049150,48.336620 1.414937,48.002468 
	C1.000000,46.933331 1.000000,45.866661 1.000000,44.399994 
	C17.114435,44.000000 33.228870,44.000000 49.343307,44.000000 
	C70.745262,44.000000 92.147217,44.000000 113.549171,44.000000 
	C135.117706,44.000000 156.686249,44.000000 178.254776,44.000000 
	C199.323563,44.000000 220.392365,44.000000 241.461151,44.000000 
	C263.029694,44.000000 284.598206,44.000000 306.166748,44.000000 
	C327.235535,44.000000 348.304352,44.000000 369.373138,44.000000 
	C390.775085,44.000000 412.177063,44.000000 433.579010,44.000000 
	C454.980957,44.000000 476.382904,44.000000 497.784851,44.000000 
	C519.020203,44.000000 540.255615,44.000000 561.490967,44.000000 
	C568.777100,44.000000 576.075684,43.742363 583.344604,44.096153 
	C587.739929,44.310074 592.081116,45.526054 596.463989,46.174320 
	C597.708618,46.358418 599.014282,46.129932 600.645996,46.045330 
	C601.000000,46.444447 601.000000,46.888889 601.000000,47.666668 
z"/>
<path fill="#2562CB" opacity="1.000000" stroke="none" 
	d="
M510.054749,312.992676 
	C510.371002,310.915283 510.781830,308.846863 510.980377,306.758270 
	C511.247437,303.949402 510.074951,300.802979 513.869202,299.087219 
	C514.700867,298.711182 514.562012,296.188843 514.959961,294.207886 
	C517.507996,294.207886 520.293152,294.021606 523.044678,294.246674 
	C528.782593,294.715973 534.495972,295.480591 540.231934,295.979462 
	C546.801392,296.550781 553.392944,297.417633 559.958740,297.294617 
	C564.604858,297.207550 569.227173,295.703827 573.852722,294.794739 
	C574.647888,294.638458 575.452942,293.977325 576.173828,294.084503 
	C582.822937,295.073303 589.661011,295.215515 595.721130,298.849121 
	C596.875061,299.540985 598.741394,299.044830 600.639526,299.048401 
	C601.000000,307.687561 601.000000,316.375122 601.000000,325.531342 
	C597.742310,326.000031 594.484680,326.000061 591.226990,326.000061 
	C579.408264,326.000031 567.589600,326.000000 555.770874,326.000000 
	C545.691895,325.999969 535.612366,326.054230 525.534180,325.964905 
	C522.734619,325.940063 519.927307,325.577850 517.144043,325.213440 
	C513.168152,324.692841 509.565216,324.498718 509.859009,330.209595 
	C509.884857,330.712402 509.195221,331.252014 508.432892,331.468750 
	C508.703491,325.106171 509.379120,319.049438 510.054749,312.992676 
z"/>
<path fill="#0F2DB1" opacity="1.000000" stroke="none" 
	d="
M413.024963,123.879593 
	C414.423462,122.596840 415.742523,120.324402 417.234375,120.204659 
	C423.310974,119.716927 429.338684,120.247429 435.241913,117.406914 
	C437.668335,116.239372 441.369995,117.960869 444.491974,117.964218 
	C492.262756,118.015488 540.033630,117.999886 587.804443,117.999878 
	C591.920715,117.999878 596.037048,117.999901 600.576660,117.999954 
	C601.000000,122.689255 601.000000,127.378510 600.560669,132.533539 
	C596.832886,132.666306 593.544922,132.048035 590.256042,132.043365 
	C545.349304,131.979446 500.442413,131.976242 455.535797,132.072952 
	C453.333923,132.077682 450.852203,132.671310 448.987000,133.796631 
	C443.583221,137.056870 442.250763,136.999069 437.601837,132.537231 
	C436.855194,131.820602 435.367157,131.876434 434.221832,131.575195 
	C434.075226,132.620483 433.422852,134.046082 433.872040,134.643356 
	C435.562622,136.891510 437.611969,138.869904 439.526947,140.949341 
	C440.016541,140.655151 440.506134,140.360962 440.995728,140.066788 
	C440.995728,141.708878 440.995728,143.350983 440.678528,144.882614 
	C434.528168,139.965958 428.695038,135.159744 422.871765,130.040741 
	C422.247650,129.504044 421.613678,129.280151 420.634613,129.013580 
	C418.165222,127.554649 416.040924,126.138390 413.809631,124.573120 
	C413.532898,124.242851 413.337494,124.095657 413.065643,123.981575 
	C413.014893,123.980614 413.024963,123.879593 413.024963,123.879593 
z"/>
<path fill="#1235B5" opacity="1.000000" stroke="none" 
	d="
M601.000000,167.531357 
	C599.482361,167.893814 596.890991,168.253784 596.611511,167.610062 
	C593.463135,160.358337 587.123901,162.223221 581.543640,162.054108 
	C577.137085,161.920563 572.719604,161.907196 568.314026,162.053558 
	C564.027100,162.195969 559.751282,162.819077 555.466980,162.860474 
	C546.249756,162.949524 537.030273,162.788452 527.811646,162.753708 
	C523.224060,162.736404 518.635925,162.816833 514.048950,162.765533 
	C511.584717,162.737991 509.123901,162.462769 506.659149,162.409882 
	C502.361908,162.317657 498.059906,162.192596 493.765228,162.298294 
	C488.388031,162.430664 483.006256,162.655136 477.644806,163.074203 
	C472.232117,163.497253 466.841858,164.207001 460.787354,164.806305 
	C459.075195,163.567261 458.017426,162.313049 456.963135,160.685272 
	C455.694397,159.194580 454.422150,158.077499 452.843964,156.827484 
	C451.383484,155.371323 450.228943,154.048111 449.044312,152.403168 
	C448.675537,151.054123 448.336853,150.026810 448.376221,148.945557 
	C451.503326,148.654907 454.350159,148.795853 456.984039,148.114120 
	C466.782288,145.578140 476.649811,144.781479 486.793121,144.880859 
	C519.443542,145.200790 552.099487,145.090790 584.752014,144.910309 
	C590.171387,144.880356 595.584167,143.666672 601.000000,143.000000 
	C601.000000,151.020905 601.000000,159.041809 601.000000,167.531357 
z"/>
<path fill="#3993E3" opacity="1.000000" stroke="none" 
	d="
M404.933502,482.893158 
	C411.298065,485.181763 413.750702,484.058014 418.332764,476.930420 
	C424.757477,477.629883 431.048035,478.887878 437.342773,478.909088 
	C486.227325,479.073792 535.112732,479.027313 583.997681,478.961395 
	C589.400146,478.954102 594.801880,478.413849 600.601990,478.060394 
	C601.000000,479.714355 601.000000,481.428711 600.621094,483.625977 
	C597.062195,484.933685 593.869263,485.366241 593.249207,489.829834 
	C593.096375,490.929871 589.756470,492.172455 587.808167,492.310272 
	C584.271240,492.560486 580.674866,491.809448 577.111206,491.879364 
	C572.010803,491.979370 566.918579,492.662689 561.820862,492.688171 
	C556.426575,492.715118 550.981750,491.693970 545.644775,492.144989 
	C536.082458,492.953064 526.603638,494.434296 517.160278,491.308685 
	C516.046997,490.940216 514.597290,491.582916 513.304504,491.763397 
	C510.367279,492.173431 507.425079,492.968719 504.494934,492.925629 
	C496.939667,492.814453 489.349060,492.712311 481.848114,491.904785 
	C472.316254,490.878601 462.871857,495.591309 453.365845,492.071716 
	C452.951019,491.918152 452.388733,492.204620 451.892914,492.221954 
	C444.681122,492.473907 437.242920,493.932587 430.314728,492.646667 
	C421.866821,491.078735 413.880096,493.202911 405.687103,493.167755 
	C401.142670,493.148254 396.599701,494.085449 392.042175,494.317505 
	C391.405518,494.349884 390.688904,492.811340 390.382751,491.984985 
	C393.287109,490.948151 395.913513,490.102173 398.296082,488.807434 
	C399.108978,488.365753 399.309174,486.796448 399.825500,485.745972 
	C399.861694,485.749603 399.817535,485.807434 400.211731,485.863647 
	C402.044159,484.918945 403.482330,483.917999 404.932251,482.919373 
	C404.944000,482.921692 404.933502,482.893158 404.933502,482.893158 
z"/>
<path fill="#1031B5" opacity="1.000000" stroke="none" 
	d="
M601.000000,142.545898 
	C595.584167,143.666672 590.171387,144.880356 584.752014,144.910309 
	C552.099487,145.090790 519.443542,145.200790 486.793121,144.880859 
	C476.649811,144.781479 466.782288,145.578140 456.984039,148.114120 
	C454.350159,148.795853 451.503326,148.654907 448.077820,148.785980 
	C445.270142,147.454834 443.138916,146.229279 441.003632,145.002716 
	C440.999573,145.001709 440.995728,144.993073 440.995728,144.993073 
	C440.995728,143.350983 440.995728,141.708878 440.995728,140.066788 
	C440.506134,140.360962 440.016541,140.655151 439.526947,140.949341 
	C437.611969,138.869904 435.562622,136.891510 433.872040,134.643356 
	C433.422852,134.046082 434.075226,132.620483 434.221832,131.575195 
	C435.367157,131.876434 436.855194,131.820602 437.601837,132.537231 
	C442.250763,136.999069 443.583221,137.056870 448.987000,133.796631 
	C450.852203,132.671310 453.333923,132.077682 455.535797,132.072952 
	C500.442413,131.976242 545.349304,131.979446 590.256042,132.043365 
	C593.544922,132.048035 596.832886,132.666306 600.560669,132.999664 
	C601.000000,136.030594 601.000000,139.061188 601.000000,142.545898 
z"/>
<path fill="#0C23AC" opacity="1.000000" stroke="none" 
	d="
M601.000000,101.550018 
	C599.557678,101.760521 597.186951,101.958008 596.833130,101.206223 
	C595.269653,97.884346 592.614624,97.978600 589.701111,97.979881 
	C528.900208,98.006645 468.099335,98.008209 407.298462,97.978165 
	C403.951508,97.976509 401.081818,97.821899 400.621094,102.545021 
	C400.493927,103.848633 397.406891,105.585503 395.508301,105.835571 
	C392.144379,106.278648 388.648743,105.630852 385.212372,105.687607 
	C384.472870,105.699814 383.750793,106.765457 382.635345,107.656464 
	C371.482391,104.383186 360.714752,100.799309 349.947144,97.215424 
	C355.778412,89.225632 364.158752,90.924759 372.248596,91.229973 
	C378.011841,91.447411 383.788605,91.306602 389.559357,91.323799 
	C392.203430,91.331673 394.848022,91.303772 397.491516,91.346054 
	C406.910492,91.496712 416.328888,91.682236 425.747864,91.830940 
	C430.838379,91.911308 435.929535,91.983421 441.020508,91.990463 
	C456.222717,92.011490 471.426300,92.122253 486.626740,91.957893 
	C497.840881,91.836647 509.049805,91.142563 520.263245,91.077614 
	C527.840759,91.033714 535.419861,91.783081 543.002563,91.899437 
	C547.294861,91.965294 551.596191,91.274315 555.892883,91.281128 
	C560.180786,91.287926 564.471985,92.001305 568.754639,91.936157 
	C575.215637,91.837860 581.674805,91.022934 588.126343,91.113228 
	C592.154419,91.169594 596.167053,92.330467 600.593262,92.997849 
	C601.000000,95.700012 601.000000,98.400032 601.000000,101.550018 
z"/>
<path fill="#3A95E4" opacity="1.000000" stroke="none" 
	d="
M390.009308,492.000000 
	C390.688904,492.811340 391.405518,494.349884 392.042175,494.317505 
	C396.599701,494.085449 401.142670,493.148254 405.687103,493.167755 
	C413.880096,493.202911 421.866821,491.078735 430.314728,492.646667 
	C437.242920,493.932587 444.681122,492.473907 451.892914,492.221954 
	C452.388733,492.204620 452.951019,491.918152 453.365845,492.071716 
	C462.871857,495.591309 472.316254,490.878601 481.848114,491.904785 
	C489.349060,492.712311 496.939667,492.814453 504.494934,492.925629 
	C507.425079,492.968719 510.367279,492.173431 513.304504,491.763397 
	C514.597290,491.582916 516.046997,490.940216 517.160278,491.308685 
	C526.603638,494.434296 536.082458,492.953064 545.644775,492.144989 
	C550.981750,491.693970 556.426575,492.715118 561.820862,492.688171 
	C566.918579,492.662689 572.010803,491.979370 577.111206,491.879364 
	C580.674866,491.809448 584.271240,492.560486 587.808167,492.310272 
	C589.756470,492.172455 593.096375,490.929871 593.249207,489.829834 
	C593.869263,485.366241 597.062195,484.933685 600.621094,484.054443 
	C601.000000,488.356903 601.000000,492.713806 601.000000,497.535339 
	C596.213745,498.333344 591.428284,498.942413 586.641174,498.955383 
	C554.855591,499.041534 523.069641,499.000000 491.283844,499.000000 
	C470.223999,499.000000 449.163269,498.881683 428.104675,499.043640 
	C415.111694,499.143585 402.119934,499.612793 389.132812,500.064728 
	C387.047272,500.137299 384.988861,500.989197 382.122437,501.669678 
	C381.721680,499.658020 381.325256,497.668213 380.907532,495.277466 
	C380.886200,494.876495 380.865631,494.898468 381.186462,494.888855 
	C381.976074,494.497345 382.444855,494.115509 382.912231,493.793152 
	C382.910767,493.852600 382.796143,493.820587 383.102356,493.848816 
	C383.931793,493.613037 384.455048,493.349091 385.162537,492.992310 
	C385.346741,492.899536 385.759064,492.912476 386.090027,492.900452 
	C386.927765,492.517853 387.434570,492.147278 387.945007,491.848511 
	C387.948700,491.920288 387.805237,491.911713 388.048004,491.827515 
	C388.525757,491.501190 388.760773,491.259064 389.197571,490.860840 
	C389.566528,490.673431 389.733704,490.642181 389.928802,490.958130 
	C389.974243,491.536896 389.991760,491.768463 390.009308,492.000000 
z"/>
<path fill="#0916A9" opacity="1.000000" stroke="none" 
	d="
M601.000000,33.531342 
	C600.666504,32.267147 600.333008,30.534290 599.998535,28.399216 
	C599.999146,19.310434 600.000732,10.623871 600.001160,1.468650 
	C600.333374,1.818095 600.951111,2.634269 600.956726,3.454596 
	C601.023682,13.323606 601.000000,23.193226 601.000000,33.531342 
z"/>
<path fill="#1E1E1D" opacity="1.000000" stroke="none" 
	d="
M389.900909,490.610901 
	C389.733704,490.642181 389.566528,490.673431 388.921387,490.877625 
	C388.230652,491.337616 388.017914,491.624634 387.805237,491.911682 
	C387.805237,491.911713 387.948700,491.920288 387.614197,491.882996 
	C386.772827,492.201294 386.265961,492.556885 385.759064,492.912476 
	C385.759064,492.912476 385.346741,492.899536 384.850159,492.924438 
	C383.834412,493.239777 383.315277,493.530182 382.796143,493.820587 
	C382.796143,493.820587 382.910767,493.852600 382.597412,493.832336 
	C381.811249,494.174194 381.338440,494.536316 380.865631,494.898468 
	C380.865631,494.898468 380.886200,494.876495 380.869934,494.868530 
	C368.749756,498.424469 356.733948,502.337494 344.509125,505.421875 
	C337.126129,507.284607 329.450500,508.164551 321.851440,508.963959 
	C283.128021,513.037781 246.236084,506.200806 210.635651,489.883484 
	C194.233505,481.372253 178.878632,471.844177 164.737091,459.897278 
	C154.849762,449.559784 145.255493,439.354462 135.361618,428.985229 
	C129.913635,421.003693 124.765259,413.186096 119.305359,404.836426 
	C118.383644,403.402588 117.773438,402.500854 117.163246,401.599091 
	C117.163254,401.599091 117.132797,401.247101 117.006546,401.123230 
	C112.064102,390.370758 107.235542,379.747742 102.459358,369.101196 
	C102.138229,368.385376 102.212990,367.491913 101.959335,366.073029 
	C101.726608,365.098694 101.495911,364.888275 101.122978,364.833710 
	C101.122978,364.833710 101.208679,364.807465 101.223877,364.764038 
	C98.860741,354.065460 96.482399,343.410339 94.023048,332.051086 
	C93.702202,330.541656 93.462364,329.736328 93.222534,328.931030 
	C93.214752,328.491669 93.206963,328.052277 93.089325,327.299683 
	C92.727013,323.258270 92.474548,319.530090 92.134232,315.395996 
	C91.349197,294.076263 92.579895,273.319366 97.068321,252.409729 
	C97.030602,251.988724 97.167015,251.626968 97.368942,251.153717 
	C97.891891,249.473785 98.212921,248.267075 98.533951,247.060379 
	C100.359406,241.367874 102.184868,235.675354 104.258011,229.477478 
	C104.756142,228.717819 104.842339,228.416595 104.764282,228.068466 
	C104.929054,227.326630 105.093826,226.584793 105.308174,225.465576 
	C108.230263,218.998367 111.102783,212.908539 114.283707,206.257950 
	C115.101822,204.481171 115.611542,203.265182 116.121262,202.049179 
	C116.445312,201.574295 116.769371,201.099411 117.135643,200.330994 
	C122.463455,192.094772 127.656006,184.087845 133.073868,176.236420 
	C135.784134,172.308762 138.905594,168.664856 141.979218,164.603546 
	C151.332840,155.463913 160.548340,146.613342 170.238754,137.390625 
	C171.273575,136.392273 171.833466,135.766098 172.393372,135.139923 
	C173.268860,134.653946 174.144348,134.167969 175.200806,133.423798 
	C182.582886,128.362549 189.678070,123.389160 197.025299,118.821182 
	C201.344482,116.135826 206.064240,114.094749 210.841721,111.516830 
	C217.174591,108.951004 223.269592,106.632240 230.061768,104.109146 
	C235.831940,102.243973 240.904922,100.583138 245.977905,98.922310 
	C246.415146,98.905968 246.852371,98.889626 247.974976,98.838448 
	C250.435425,98.184723 252.210480,97.565826 253.985550,96.946945 
	C254.719406,96.913612 255.453278,96.880287 256.934204,96.815163 
	C260.119629,96.182671 262.557983,95.581963 264.996307,94.981262 
	C268.063660,94.386971 271.131012,93.792679 274.804871,93.366249 
	C276.271912,93.342667 277.132446,93.151222 277.992981,92.959778 
	C280.012543,92.916695 282.032104,92.873604 284.931335,92.850662 
	C289.189423,92.508339 292.567780,92.145866 295.946167,91.783401 
	C299.011139,91.813904 302.076141,91.844406 305.874023,92.132629 
	C310.431396,92.515282 314.255859,92.640213 318.080292,92.765144 
	C320.101135,92.832130 322.122009,92.899117 324.858582,93.206436 
	C328.716949,93.962067 331.859589,94.477356 335.002258,94.992638 
	C336.679840,95.063744 338.357391,95.134850 340.707214,95.466721 
	C343.250641,96.082115 345.121796,96.436752 346.992981,96.791397 
	C347.730042,96.907722 348.467133,97.024055 349.575684,97.177902 
	C360.714752,100.799309 371.482391,104.383186 382.620850,108.014969 
	C392.782867,113.273125 402.574005,118.483383 412.695068,123.786621 
	C413.024963,123.879593 413.014893,123.980614 413.118896,124.178940 
	C413.380585,124.640144 413.611816,124.755096 413.916595,124.722122 
	C416.040924,126.138390 418.165222,127.554649 420.790070,129.265305 
	C421.814362,129.824310 422.338135,130.088928 422.861908,130.353546 
	C428.695038,135.159744 434.528168,139.965958 440.678528,144.882614 
	C440.995728,144.993073 440.999573,145.001709 441.128693,145.310989 
	C443.863373,147.988480 446.468903,150.356674 449.074432,152.724884 
	C450.228943,154.048111 451.383484,155.371323 452.922394,157.134918 
	C454.524414,158.736481 455.742035,159.897675 456.959656,161.058868 
	C458.017426,162.313049 459.075195,163.567261 460.401184,164.959839 
	C463.151123,168.557022 465.698273,171.971115 468.101105,175.483917 
	C473.195190,182.931320 478.214050,190.430161 483.530060,198.137527 
	C488.636536,209.161316 493.476746,219.955490 498.566589,231.013550 
	C498.816254,231.277451 498.813416,231.668182 498.895233,232.093399 
	C499.038330,232.674164 499.099579,232.829712 499.160797,232.985260 
	C502.208954,246.131729 505.257111,259.278198 508.529236,272.727905 
	C509.150391,286.041534 509.547607,299.051941 509.999756,312.527496 
	C509.379120,319.049438 508.703491,325.106171 508.079834,331.578217 
	C506.392212,340.052887 504.652588,348.112274 502.938599,356.575073 
	C497.259247,370.978027 491.554321,384.977570 485.790833,399.316833 
	C485.732300,399.656555 485.750366,399.759430 485.560486,399.891022 
	C485.274384,400.348480 485.178192,400.674377 485.082001,401.000244 
	C485.082001,401.000244 485.002167,401.023254 484.769867,401.208984 
	C484.341614,401.919250 484.145691,402.443787 483.949768,402.968323 
	C478.015869,411.753723 472.082001,420.539093 466.036530,429.644653 
	C457.013275,439.314819 448.101593,448.664795 439.025330,458.282990 
	C427.682556,466.481476 416.504333,474.411743 405.129822,482.617615 
	C404.933502,482.893158 404.944000,482.921692 404.603394,482.971008 
	C402.781067,483.949371 401.299286,484.878387 399.817535,485.807434 
	C399.817535,485.807434 399.861694,485.749603 399.478638,485.794861 
	C396.030670,487.430359 392.965790,489.020630 389.900909,490.610901 
M238.588043,267.662964 
	C259.858917,228.591949 309.591766,218.535156 344.055237,244.963699 
	C352.896454,251.743622 359.606293,260.369324 365.041473,270.801147 
	C366.417572,274.880188 368.060394,278.893402 369.087646,283.058502 
	C369.951935,286.562897 371.570496,287.961975 375.282074,287.892151 
	C386.247314,287.685852 397.218964,287.818573 408.188110,287.819916 
	C431.455994,287.822784 454.723907,287.810852 477.991730,287.850098 
	C480.825500,287.854889 483.734039,288.016754 482.888428,283.863129 
	C480.385681,271.569855 477.755157,259.302612 475.123901,246.242111 
	C474.090851,243.083542 473.243896,239.849442 471.997192,236.777588 
	C448.566406,179.044785 407.281036,141.002182 346.987549,124.417633 
	C314.266571,115.417282 281.365112,116.221329 248.960571,126.001152 
	C202.436264,140.042389 166.793625,168.422852 142.629623,210.515900 
	C136.085144,221.916229 132.132401,234.804367 126.467896,247.508728 
	C123.995598,259.684357 121.499077,271.855164 119.069382,284.039276 
	C118.516365,286.812439 119.784775,287.899384 122.638123,287.893707 
	C157.607178,287.824280 192.576706,287.881348 227.544540,287.657898 
	C229.195618,287.647339 231.607452,285.657959 232.330978,284.005920 
	C234.586029,278.856903 236.199295,273.426819 238.588043,267.662964 
M371.395935,314.296844 
	C371.245972,314.459625 371.096008,314.622406 370.300995,315.214386 
	C363.506775,342.963745 346.756165,361.720642 319.065247,369.139587 
	C292.397827,376.284332 269.006409,369.088623 249.618286,349.470428 
	C240.022186,339.760468 234.329559,327.835541 231.474014,314.523773 
	C193.850006,314.523773 156.487732,314.523773 118.325661,314.523773 
	C119.823380,323.524628 120.835152,332.129272 122.718605,340.538666 
	C144.571014,438.107147 239.776001,499.704285 337.931488,479.902863 
	C415.397369,464.275330 475.894592,397.064545 482.767303,318.919556 
	C482.896667,317.448395 482.317139,315.914917 481.480408,314.273376 
	C481.285492,314.323486 481.090607,314.373596 479.995544,314.203278 
	C467.000122,314.193268 454.004639,314.151855 441.009277,314.180206 
	C418.023560,314.230286 395.037933,314.322784 371.395935,314.296844 
M279.101868,262.510345 
	C263.799561,272.035797 256.072479,285.693481 256.885742,303.825317 
	C258.012329,328.942749 281.383850,348.113251 306.763245,344.882690 
	C331.702148,341.708160 349.452393,317.187775 344.466797,292.798615 
	C338.375458,263.000183 307.794037,248.512146 279.101868,262.510345 
z"/>
<path fill="#13247F" opacity="1.000000" stroke="none" 
	d="
M317.926727,92.417061 
	C314.255859,92.640213 310.431396,92.515282 306.330994,92.083298 
	C309.961060,91.873833 313.867126,91.971405 317.926727,92.417061 
z"/>
<path fill="#13247F" opacity="1.000000" stroke="none" 
	d="
M295.629639,91.549225 
	C292.567780,92.145866 289.189423,92.508339 285.357178,92.778793 
	C288.373230,92.229523 291.843201,91.772278 295.629639,91.549225 
z"/>
<path fill="#13247F" opacity="1.000000" stroke="none" 
	d="
M334.895447,94.634018 
	C331.859589,94.477356 328.716949,93.962067 325.292816,93.195107 
	C328.270447,93.387421 331.529572,93.831406 334.895447,94.634018 
z"/>
<path fill="#11268C" opacity="1.000000" stroke="none" 
	d="
M264.716919,94.728043 
	C262.557983,95.581963 260.119629,96.182671 257.288971,96.716568 
	C256.921051,96.283463 256.945465,95.917160 256.979187,95.274170 
	C259.471527,94.823273 261.954529,94.649048 264.716919,94.728043 
z"/>
<path fill="#0C23AC" opacity="1.000000" stroke="none" 
	d="
M346.923615,96.447899 
	C345.121796,96.436752 343.250641,96.082115 341.126282,95.476089 
	C343.178894,93.396286 345.236542,93.254768 346.923615,96.447899 
z"/>
<path fill="#13247F" opacity="1.000000" stroke="none" 
	d="
M277.786499,92.736153 
	C277.132446,93.151222 276.271912,93.342667 275.194092,93.340042 
	C275.844543,92.934837 276.712280,92.723686 277.786499,92.736153 
z"/>
<path fill="#0E2BB1" opacity="1.000000" stroke="none" 
	d="
M172.028168,135.143997 
	C171.833466,135.766098 171.273575,136.392273 170.400940,137.098267 
	C170.613113,136.501419 171.138046,135.824753 172.028168,135.143997 
z"/>
<path fill="#2D76D6" opacity="1.000000" stroke="none" 
	d="
M117.126442,401.984100 
	C117.773438,402.500854 118.383644,403.402588 119.035034,404.631653 
	C118.414040,404.095703 117.751839,403.232391 117.126442,401.984100 
z"/>
<path fill="#296CD0" opacity="1.000000" stroke="none" 
	d="
M101.170303,365.058594 
	C101.495911,364.888275 101.726608,365.098694 101.816132,365.711273 
	C101.542259,365.799713 101.342400,365.575012 101.170303,365.058594 
z"/>
<path fill="#245FCA" opacity="1.000000" stroke="none" 
	d="
M92.959129,329.115417 
	C93.462364,329.736328 93.702202,330.541656 93.879074,331.666382 
	C93.442650,331.090454 93.069191,330.195129 92.959129,329.115417 
z"/>
<path fill="#1944BD" opacity="1.000000" stroke="none" 
	d="
M499.377777,232.960266 
	C499.099579,232.829712 499.038330,232.674164 498.982605,232.268127 
	C499.383087,232.145905 499.778046,232.274170 500.172974,232.402435 
	C499.980225,232.580063 499.787506,232.757660 499.377777,232.960266 
z"/>
<path fill="#143BB7" opacity="1.000000" stroke="none" 
	d="
M115.755028,202.111633 
	C115.611542,203.265182 115.101822,204.481171 114.333298,205.903732 
	C114.512596,204.798233 114.950699,203.486160 115.755028,202.111633 
z"/>
<path fill="#11268C" opacity="1.000000" stroke="none" 
	d="
M245.715424,98.684158 
	C240.904922,100.583138 235.831940,102.243973 230.362396,103.887756 
	C235.128204,102.062477 240.290573,100.254242 245.715424,98.684158 
z"/>
<path fill="#11268C" opacity="1.000000" stroke="none" 
	d="
M253.727417,96.706192 
	C252.210480,97.565826 250.435425,98.184723 248.295853,98.767143 
	C248.810852,95.612793 250.989761,95.671669 253.727417,96.706192 
z"/>
<path fill="#2D74D5" opacity="1.000000" stroke="none" 
	d="
M484.185089,402.809631 
	C484.145691,402.443787 484.341614,401.919250 484.782471,401.248566 
	C484.825012,401.618591 484.622711,402.134766 484.185089,402.809631 
z"/>
<path fill="#2D74D5" opacity="1.000000" stroke="none" 
	d="
M485.276581,400.850006 
	C485.178192,400.674377 485.274384,400.348480 485.607483,399.913818 
	C485.831879,400.149994 485.707489,400.448242 485.276581,400.850006 
z"/>
<path fill="#2055C5" opacity="1.000000" stroke="none" 
	d="
M98.177673,247.241211 
	C98.212921,248.267075 97.891891,249.473785 97.322800,250.966003 
	C97.323624,249.975021 97.572510,248.698532 98.177673,247.241211 
z"/>
<path fill="#1843BC" opacity="1.000000" stroke="none" 
	d="
M104.591766,228.224274 
	C104.842339,228.416595 104.756142,228.717819 104.302551,229.109787 
	C104.112175,228.923660 104.218788,228.634537 104.591766,228.224274 
z"/>
<path fill="#0D27AF" opacity="1.000000" stroke="none" 
	d="
M422.871765,130.040741 
	C422.338135,130.088928 421.814362,129.824310 421.135132,129.307968 
	C421.613678,129.280151 422.247650,129.504044 422.871765,130.040741 
z"/>
<path fill="#0D27AF" opacity="1.000000" stroke="none" 
	d="
M413.809631,124.573120 
	C413.611816,124.755096 413.380585,124.640144 413.169617,124.179901 
	C413.337494,124.095657 413.532898,124.242851 413.809631,124.573120 
z"/>
<path fill="#0F2DB1" opacity="1.000000" stroke="none" 
	d="
M449.044312,152.403152 
	C446.468903,150.356674 443.863373,147.988480 441.132751,145.311996 
	C443.138916,146.229279 445.270142,147.454834 447.699768,148.839935 
	C448.336853,150.026810 448.675537,151.054123 449.044312,152.403152 
z"/>
<path fill="#0F2DB1" opacity="1.000000" stroke="none" 
	d="
M456.963135,160.685272 
	C455.742035,159.897675 454.524414,158.736481 453.228363,157.267853 
	C454.422150,158.077499 455.694397,159.194580 456.963135,160.685272 
z"/>
<path fill="#3890E1" opacity="1.000000" stroke="none" 
	d="
M389.928802,490.958099 
	C392.965790,489.020630 396.030670,487.430359 399.442444,485.791229 
	C399.309174,486.796448 399.108978,488.365753 398.296082,488.807434 
	C395.913513,490.102173 393.287109,490.948151 390.382751,491.984985 
	C389.991760,491.768463 389.974243,491.536896 389.928802,490.958099 
z"/>
<path fill="#3890E1" opacity="1.000000" stroke="none" 
	d="
M400.211731,485.863647 
	C401.299286,484.878387 402.781067,483.949371 404.591675,482.968689 
	C403.482330,483.917999 402.044159,484.918945 400.211731,485.863647 
z"/>
<path fill="#3C99E6" opacity="1.000000" stroke="none" 
	d="
M381.186462,494.888855 
	C381.338440,494.536316 381.811249,494.174194 382.598877,493.772888 
	C382.444855,494.115509 381.976074,494.497345 381.186462,494.888855 
z"/>
<path fill="#3C99E6" opacity="1.000000" stroke="none" 
	d="
M383.102356,493.848816 
	C383.315277,493.530182 383.834412,493.239777 384.665924,493.017212 
	C384.455048,493.349091 383.931793,493.613037 383.102356,493.848816 
z"/>
<path fill="#3C99E6" opacity="1.000000" stroke="none" 
	d="
M386.090027,492.900452 
	C386.265961,492.556885 386.772827,492.201294 387.610535,491.811218 
	C387.434570,492.147278 386.927765,492.517853 386.090027,492.900452 
z"/>
<path fill="#3C99E6" opacity="1.000000" stroke="none" 
	d="
M388.047974,491.827515 
	C388.017914,491.624634 388.230652,491.337616 388.719604,491.033752 
	C388.760773,491.259064 388.525757,491.501190 388.047974,491.827515 
z"/>
<path fill="#F4F2FA" opacity="1.000000" stroke="none" 
	d="
M482.068359,314.410522 
	C482.317139,315.914917 482.896667,317.448395 482.767303,318.919556 
	C475.894592,397.064545 415.397369,464.275330 337.931488,479.902863 
	C239.776001,499.704285 144.571014,438.107147 122.718605,340.538666 
	C120.835152,332.129272 119.823380,323.524628 118.325661,314.523773 
	C156.487732,314.523773 193.850006,314.523773 231.474014,314.523773 
	C234.329559,327.835541 240.022186,339.760468 249.618286,349.470428 
	C269.006409,369.088623 292.397827,376.284332 319.065247,369.139587 
	C346.756165,361.720642 363.506775,342.963745 370.774170,315.153992 
	C371.515656,314.861572 371.783966,314.629578 372.052246,314.397552 
	C395.037933,314.322784 418.023560,314.230286 441.009277,314.180206 
	C454.004639,314.151855 467.000122,314.193268 480.554688,314.523926 
	C481.432007,314.699890 481.750183,314.555206 482.068359,314.410522 
z"/>
<path fill="#E13A1D" opacity="1.000000" stroke="none" 
	d="
M126.990082,247.009613 
	C132.132401,234.804367 136.085144,221.916229 142.629623,210.515900 
	C166.793625,168.422852 202.436264,140.042389 248.960571,126.001152 
	C281.365112,116.221329 314.266571,115.417282 346.987549,124.417633 
	C407.281036,141.002182 448.566406,179.044785 471.997192,236.777588 
	C473.243896,239.849442 474.090851,243.083542 475.023102,246.973160 
	C473.535706,248.481674 472.234344,249.549347 470.747650,249.985992 
	C464.550049,251.806274 458.349701,253.672379 452.053192,255.089935 
	C436.856537,258.511200 421.687683,262.164795 406.351624,264.825592 
	C392.673462,267.198792 378.786194,268.366608 364.991180,270.066376 
	C359.606293,260.369324 352.896454,251.743622 344.055237,244.963699 
	C309.591766,218.535156 259.858917,228.591949 237.891052,267.854279 
	C222.823837,266.019104 208.348099,264.545227 194.110260,261.825714 
	C176.469879,258.456268 159.029465,254.042023 141.496506,250.106674 
	C136.672348,249.023865 131.826157,248.039276 126.990082,247.009613 
z"/>
<path fill="#FEFEFE" opacity="1.000000" stroke="none" 
	d="
M279.420685,262.322113 
	C307.794037,248.512146 338.375458,263.000183 344.466797,292.798615 
	C349.452393,317.187775 331.702148,341.708160 306.763245,344.882690 
	C281.383850,348.113251 258.012329,328.942749 256.885742,303.825317 
	C256.072479,285.693481 263.799561,272.035797 279.420685,262.322113 
z"/>
<path fill="#C61F0E" opacity="1.000000" stroke="none" 
	d="
M126.728989,247.259186 
	C131.826157,248.039276 136.672348,249.023865 141.496506,250.106674 
	C159.029465,254.042023 176.469879,258.456268 194.110260,261.825714 
	C208.348099,264.545227 222.823837,266.019104 237.627731,268.075684 
	C236.199295,273.426819 234.586029,278.856903 232.330978,284.005920 
	C231.607452,285.657959 229.195618,287.647339 227.544540,287.657898 
	C192.576706,287.881348 157.607178,287.824280 122.638123,287.893707 
	C119.784775,287.899384 118.516365,286.812439 119.069382,284.039276 
	C121.499077,271.855164 123.995598,259.684357 126.728989,247.259186 
z"/>
<path fill="#C61F0E" opacity="1.000000" stroke="none" 
	d="
M365.016327,270.433777 
	C378.786194,268.366608 392.673462,267.198792 406.351624,264.825592 
	C421.687683,262.164795 436.856537,258.511200 452.053192,255.089935 
	C458.349701,253.672379 464.550049,251.806274 470.747650,249.985992 
	C472.234344,249.549347 473.535706,248.481674 475.048462,247.364685 
	C477.755157,259.302612 480.385681,271.569855 482.888428,283.863129 
	C483.734039,288.016754 480.825500,287.854889 477.991730,287.850098 
	C454.723907,287.810852 431.455994,287.822784 408.188110,287.819916 
	C397.218964,287.818573 386.247314,287.685852 375.282074,287.892151 
	C371.570496,287.961975 369.951935,286.562897 369.087646,283.058502 
	C368.060394,278.893402 366.417572,274.880188 365.016327,270.433777 
z"/>
<path fill="#FFFFFF" opacity="1.000000" stroke="none" 
	d="
M371.724091,314.347198 
	C371.783966,314.629578 371.515656,314.861572 371.096680,314.939392 
	C371.096008,314.622406 371.245972,314.459625 371.724091,314.347198 
z"/>
<path fill="#FFFFFF" opacity="1.000000" stroke="none" 
	d="
M481.774384,314.341949 
	C481.750183,314.555206 481.432007,314.699890 481.004761,314.634155 
	C481.090607,314.373596 481.285492,314.323486 481.774384,314.341949 
z"/>
</svg>