<svg version="1.1" id="Layer_1" xmlns="http://www.w3.org/2000/svg" xmlns:xlink="http://www.w3.org/1999/xlink" x="0px" y="0px"
	 width="100%" viewBox="0 0 600 600" enable-background="new 0 0 600 600" xml:space="preserve">
<path fill="#000000" opacity="1.000000" stroke="none" 
	d="
M357.000000,601.000000 
	C238.000000,601.000000 119.500000,601.000000 1.000000,601.000000 
	C1.000000,401.000000 1.000000,201.000000 1.000000,1.000000 
	C201.000000,1.000000 401.000000,1.000000 601.000000,1.000000 
	C601.000000,201.000000 601.000000,401.000000 601.000000,601.000000 
	C519.833313,601.000000 438.666656,601.000000 357.000000,601.000000 
M153.056808,450.548767 
	C153.368408,450.720459 153.680023,450.892120 153.999588,451.000366 
	C153.999588,451.000366 153.936142,451.008118 154.057236,451.550049 
	C154.368759,451.721313 154.680267,451.892578 154.999634,452.000336 
	C154.999634,452.000336 154.936157,452.008209 155.057785,452.550659 
	C155.369858,452.721680 155.681915,452.892731 155.999054,453.001740 
	C155.999054,453.001740 155.939056,453.018188 156.148117,453.641479 
	C157.762573,455.083008 159.377045,456.524536 161.588165,458.298370 
	C171.414398,465.555573 181.240631,472.812744 191.260422,480.744415 
	C196.182281,483.182953 201.104156,485.621460 206.011200,487.985413 
	C206.011200,487.985413 205.936081,487.997162 206.173508,488.672791 
	C207.355408,489.462524 208.446396,490.471832 209.734467,491.005157 
	C216.394913,493.763062 223.105774,496.399200 230.218704,499.717804 
	C234.533997,501.038666 238.790298,502.615906 243.177277,503.625031 
	C251.427017,505.522736 259.752197,507.092529 268.854218,509.043976 
	C278.718842,510.034637 288.575073,511.711395 298.450348,511.832336 
	C309.394287,511.966370 320.360046,510.738281 331.303558,509.930756 
	C332.594299,509.835510 333.804626,508.651306 335.890259,507.987579 
	C338.381805,507.547760 340.873322,507.107941 344.100677,506.583466 
	C346.939178,506.068756 349.871979,505.850403 352.598328,504.983093 
	C360.419464,502.494995 368.157013,499.743988 376.313904,496.708649 
	C379.194031,495.559753 382.074188,494.410858 385.745850,493.085388 
	C388.517883,491.723663 391.289917,490.361938 393.989685,488.987183 
	C393.989685,488.987183 393.973816,489.058868 394.637512,489.007751 
	C395.112457,488.672791 395.587372,488.337799 395.991028,487.989227 
	C395.991028,487.989227 395.975128,488.059998 396.638397,488.013855 
	C397.113037,487.677917 397.587708,487.341980 397.993866,486.993347 
	C397.993866,486.993347 397.980133,487.061584 398.727295,487.030762 
	C400.504913,486.027588 402.282562,485.024445 404.001251,484.002014 
	C404.001251,484.002014 404.005432,484.063873 404.711853,484.029999 
	C406.162018,483.024170 407.612213,482.018341 408.998291,480.998474 
	C408.998291,480.998474 408.993134,481.063904 409.695648,481.036285 
	C410.578979,480.345886 411.462280,479.655457 412.854553,478.705750 
	C413.324524,478.382263 413.794495,478.058777 414.613037,477.447113 
	C414.990265,476.989410 415.367493,476.531677 416.482727,476.006104 
	C424.081573,470.240326 431.680389,464.474548 439.769440,458.301910 
	C441.531921,456.877106 443.294434,455.452301 445.000885,454.003632 
	C445.000885,454.003632 445.008881,454.063995 445.541290,453.928131 
	C445.715698,453.621002 445.890106,453.313843 446.000183,452.999878 
	C446.000183,452.999878 446.007141,453.064178 446.547089,452.941528 
	C446.719452,452.631500 446.891846,452.321442 447.001862,452.001617 
	C447.001862,452.001617 447.011932,452.063934 447.562531,451.958069 
	C447.729645,451.642273 447.896729,451.326447 448.001160,451.001556 
	C448.001160,451.001556 448.009949,451.064270 448.547546,450.935852 
	C448.719757,450.626007 448.891968,450.316132 448.999939,450.000000 
	C448.999939,450.000000 449.005768,450.064301 449.543945,449.934631 
	C449.717407,449.624634 449.890869,449.314667 449.999451,448.999481 
	C449.999451,448.999481 450.004578,449.064362 450.542816,448.934509 
	C450.716614,448.624603 450.890442,448.314728 450.999420,447.999451 
	C450.999420,447.999451 451.004669,448.064270 451.542358,447.934906 
	C451.716400,447.625580 451.890411,447.316254 452.000183,446.999939 
	C452.000183,446.999939 452.007690,447.064148 452.549591,446.941376 
	C452.721039,446.629578 452.892487,446.317810 453.001709,446.001038 
	C453.001709,446.001038 453.017700,446.061401 453.654327,445.834808 
	C455.457184,443.554504 457.260040,441.274170 458.992798,438.993561 
	C458.992798,438.993561 458.990875,439.063660 459.542816,438.946472 
	C459.716888,438.630402 459.890961,438.314301 459.999939,437.999115 
	C459.999939,437.999115 460.011200,438.063171 460.661926,437.871094 
	C461.751465,436.270569 462.841003,434.670044 464.247009,432.464569 
	C468.792206,425.863953 473.337433,419.263336 478.286835,412.462585 
	C478.552795,412.318176 478.807709,412.156311 478.985687,411.984619 
	C478.985687,411.984619 478.992645,412.050537 479.668793,411.875946 
	C482.464386,406.578308 485.259979,401.280701 487.991089,395.993134 
	C487.991089,395.993134 488.005310,396.056824 488.628845,395.852264 
	C488.770142,395.227173 488.911438,394.602081 488.987183,393.990509 
	C488.987183,393.990509 489.000793,394.056061 489.664795,393.814087 
	C492.385498,387.210358 495.106201,380.606659 498.184692,373.364410 
	C503.881470,363.331604 505.583679,352.240082 506.879517,340.529968 
	C506.879517,340.529968 506.961975,340.042999 507.019867,339.726562 
	C507.019867,339.726562 506.973907,339.408142 507.752808,339.074524 
	C508.141571,338.619446 508.825317,338.194641 508.875580,337.704803 
	C509.978455,326.959686 511.721710,316.216827 511.864868,305.453857 
	C512.019714,293.813324 510.827423,282.139526 509.861847,270.510193 
	C509.620148,267.599060 507.994171,264.802856 506.986542,262.007568 
	C506.986542,262.007568 507.042419,262.016663 506.986359,261.316010 
	C506.934753,260.851410 506.883148,260.386810 506.949951,259.243622 
	C506.640167,258.479675 506.330383,257.715759 506.004730,256.102997 
	C504.030670,240.022247 498.029236,225.270752 491.043854,210.188538 
	C490.365784,209.445129 489.687683,208.701721 488.993866,208.005020 
	C488.993866,208.005020 489.043030,208.001328 488.975159,207.266632 
	C487.653961,204.830551 486.332764,202.394485 484.996094,200.003983 
	C484.996094,200.003983 485.043427,199.995102 485.018524,199.264389 
	C482.738434,195.488770 480.458313,191.713135 478.036346,187.238037 
	C476.027161,184.477615 474.018005,181.717178 471.993042,179.005280 
	C471.993042,179.005280 472.044006,179.003357 471.895020,178.483566 
	C471.593506,178.308380 471.292023,178.133209 470.986267,178.013596 
	C470.986267,178.013596 471.041931,178.011292 470.866974,177.507904 
	C470.573364,177.324326 470.279724,177.140762 469.984283,177.014679 
	C469.984283,177.014679 470.041748,177.011902 469.991760,176.383255 
	C469.671936,175.890823 469.352142,175.398392 468.806885,174.367035 
	C468.204132,173.897705 467.601379,173.428360 466.989105,173.008347 
	C466.989105,173.008347 467.039276,173.005890 466.987732,172.294510 
	C465.329865,170.183533 463.671967,168.072556 461.995728,166.002914 
	C461.995728,166.002914 462.040497,165.996292 461.914795,165.466934 
	C461.609772,165.297760 461.304718,165.128571 460.995850,165.003296 
	C460.995850,165.003296 461.034546,164.982254 460.872894,164.400314 
	C460.251617,163.921021 459.630371,163.441711 458.997375,163.004196 
	C458.997375,163.004196 459.038361,162.990097 458.988861,162.292679 
	C453.991364,157.514282 448.993896,152.735901 443.986481,148.011383 
	C443.986481,148.011383 444.041229,148.013321 443.852203,147.521347 
	C443.563965,147.334305 443.275726,147.147263 442.985291,147.015213 
	C442.985291,147.015213 443.040192,147.011856 442.858459,146.515900 
	C442.568634,146.331009 442.278809,146.146118 441.985870,146.014206 
	C441.985870,146.014206 442.038849,146.010910 441.859100,145.515091 
	C441.569458,145.331146 441.279846,145.147186 440.991364,145.012177 
	C440.991364,145.012177 441.038910,145.000565 441.015594,144.302597 
	C440.345245,143.855942 439.674927,143.409286 438.992126,143.005753 
	C438.992126,143.005753 439.036835,143.001938 438.885193,142.492264 
	C438.590210,142.315948 438.295258,142.139648 437.996307,142.005905 
	C437.996307,142.005905 438.035858,141.989670 437.803314,141.345184 
	C435.012482,138.863724 432.364075,136.190765 429.378937,133.970535 
	C427.501190,132.573944 425.118774,131.855927 422.535217,130.343750 
	C419.690094,128.565918 416.845001,126.788078 413.650970,124.483879 
	C412.759857,123.985130 411.868774,123.486382 410.985992,123.018768 
	C410.985992,123.018768 411.018219,123.018944 410.630249,122.557327 
	C410.076996,122.359245 409.523743,122.161163 408.984161,122.023605 
	C408.984161,122.023605 409.044769,122.010361 409.019165,121.294052 
	C408.747803,120.896805 408.564453,120.365143 408.192444,120.121666 
	C391.414215,109.140099 372.705261,102.665642 353.678680,97.005348 
	C349.926544,95.889114 345.925201,95.610596 341.519775,94.357506 
	C338.700104,93.954529 335.880432,93.551552 332.177917,93.053131 
	C325.139435,92.357300 318.089844,90.993126 311.064911,91.110268 
	C298.030151,91.327637 285.009796,92.410019 271.104706,93.030899 
	C268.006012,93.334915 264.890991,93.524399 261.811493,93.963081 
	C249.551727,95.709564 237.776505,99.035789 226.121185,104.986649 
	C225.031128,105.381203 223.941086,105.775749 222.136993,106.208473 
	C211.007767,109.949112 200.434799,114.799217 190.255539,121.979691 
	C184.734894,125.554230 178.956787,128.794098 173.761307,132.791275 
	C167.782593,137.391037 161.938431,142.294662 156.720947,147.724640 
	C148.897415,155.866821 141.670746,164.582504 133.802185,173.635559 
	C125.679237,182.619003 118.841537,192.399780 115.013313,204.010895 
	C115.013313,204.010895 115.003830,203.955154 114.298950,204.082901 
	C111.520218,210.342743 108.741486,216.602585 105.324821,223.209595 
	C103.297272,229.730164 101.269722,236.250732 99.101036,243.576035 
	C98.707687,246.495300 98.314339,249.414551 97.166702,252.231415 
	C96.524864,252.652283 95.396011,252.994537 95.313499,253.505676 
	C93.834450,262.667847 92.482025,271.850464 90.999481,281.957367 
	C91.383888,305.709473 89.091629,329.640991 96.952904,352.827728 
	C100.161713,362.292053 100.857529,372.627289 107.007866,380.994659 
	C107.007866,380.994659 106.945580,380.985535 106.960701,381.765533 
	C109.276794,386.911255 111.592880,392.056946 113.946266,397.802856 
	C114.286766,398.218445 114.627258,398.634003 114.998726,399.001190 
	C114.998726,399.001190 114.942513,399.013245 115.058731,399.558563 
	C115.373558,399.724945 115.688385,399.891296 116.011070,399.990692 
	C116.011070,399.990692 115.944061,399.983002 115.974373,400.635223 
	C116.313087,401.108948 116.651810,401.582703 117.007538,401.994385 
	C117.007538,401.994385 116.944115,401.983734 116.976608,402.630157 
	C117.310539,403.104614 117.644470,403.579102 118.002235,403.998260 
	C118.002235,403.998260 117.942322,403.992340 117.951172,404.647705 
	C118.290550,405.115265 118.629929,405.582825 118.998421,406.000916 
	C118.998421,406.000916 118.944305,406.020050 118.949043,406.739441 
	C120.579826,409.176880 122.210617,411.614319 123.961021,414.706604 
	C124.635841,415.490692 125.310661,416.274750 126.001518,416.997986 
	C126.001518,416.997986 125.938644,416.995880 125.982811,417.663757 
	C126.651573,418.462524 127.320335,419.261322 128.002502,419.997925 
	C128.002502,419.997925 127.938919,419.996277 127.966743,420.670441 
	C128.638809,421.466614 129.310867,422.262756 129.999908,423.000214 
	C129.999908,423.000214 129.939087,423.005890 129.940811,423.700073 
	C130.957031,424.820190 131.973251,425.940308 133.001938,426.997040 
	C133.001938,426.997040 132.937408,426.994537 133.081528,427.530518 
	C133.391953,427.707153 133.702393,427.883759 134.012283,427.989014 
	C134.012283,427.989014 133.940918,427.986725 133.977310,428.661835 
	C134.643234,429.460083 135.309158,430.258301 135.997742,431.000732 
	C135.997742,431.000732 135.937881,431.007721 136.068558,431.546722 
	C136.380051,431.718567 136.691559,431.890411 137.006744,431.993317 
	C137.006744,431.993317 136.937836,431.989258 137.089188,432.575684 
	C137.404846,432.823944 137.720520,433.072235 138.229462,433.674103 
	C138.421356,433.886200 138.660309,433.994934 139.281921,434.244659 
	C139.454330,434.463562 139.659103,434.646149 140.169830,435.450165 
	C141.220734,436.741241 142.271622,438.032318 143.187256,439.943359 
	C144.113373,440.980103 145.039490,442.016846 145.997238,443.001404 
	C145.997238,443.001404 145.940155,443.022949 146.074142,443.619904 
	C146.713074,444.100647 147.352005,444.581390 148.000854,444.998718 
	C148.000854,444.998718 147.936707,445.001068 148.077393,445.533417 
	C148.384628,445.710022 148.691864,445.886627 149.002487,445.999054 
	C149.002487,445.999054 148.938705,446.007111 148.995758,446.706024 
	C149.659714,447.157806 150.323669,447.609619 150.998978,447.999176 
	C150.998978,447.999176 150.936020,448.005188 151.069656,448.540741 
	C151.378479,448.714783 151.687317,448.888824 152.001511,448.998444 
	C152.001511,448.998444 151.937042,449.003845 152.067322,449.540802 
	C152.376266,449.715057 152.685211,449.889313 153.000565,449.999847 
	C153.000565,449.999847 152.936798,450.006104 153.056808,450.548767 
z"/>
<path fill="#1E1E1D" opacity="1.000000" stroke="none" 
	d="
M477.882629,412.662720 
	C473.337433,419.263336 468.792206,425.863953 463.754700,432.803406 
	C462.178650,434.782562 461.094910,436.422852 460.011200,438.063171 
	C460.011200,438.063171 459.999939,437.999115 459.701965,437.957642 
	C459.266266,438.298676 459.128571,438.681183 458.990906,439.063660 
	C458.990875,439.063660 458.992798,438.993561 458.678223,438.955505 
	C456.581665,441.298767 454.799683,443.680084 453.017700,446.061401 
	C453.017700,446.061401 453.001709,446.001038 452.674316,445.911957 
	C452.233826,446.236633 452.120758,446.650391 452.007690,447.064148 
	C452.007690,447.064148 452.000183,446.999939 451.679047,446.919403 
	C451.240173,447.247345 451.122437,447.655792 451.004669,448.064270 
	C451.004669,448.064270 450.999420,447.999451 450.678986,447.923401 
	C450.240570,448.253021 450.122589,448.658691 450.004578,449.064362 
	C450.004578,449.064362 449.999451,448.999481 449.677521,448.923035 
	C449.238983,449.252533 449.122406,449.658417 449.005798,450.064301 
	C449.005768,450.064301 448.999939,450.000000 448.675201,449.916077 
	C448.236969,450.242859 448.123444,450.653564 448.009949,451.064270 
	C448.009949,451.064270 448.001160,451.001556 447.671356,450.907471 
	C447.231689,451.230225 447.121826,451.647095 447.011932,452.063934 
	C447.011932,452.063934 447.001862,452.001617 446.675232,451.914001 
	C446.234802,452.238983 446.120972,452.651581 446.007141,453.064178 
	C446.007141,453.064178 446.000183,452.999878 445.674713,452.918365 
	C445.235779,453.245911 445.122314,453.654938 445.008881,454.063995 
	C445.008881,454.063995 445.000885,454.003632 444.714722,453.803833 
	C442.712097,455.305634 440.995636,457.007202 439.279205,458.708771 
	C431.680389,464.474548 424.081573,470.240326 415.902344,476.153503 
	C414.969482,476.779022 414.616974,477.257172 414.264465,477.735291 
	C413.794495,478.058777 413.324524,478.382263 412.219055,478.754456 
	C410.720062,479.556763 409.856598,480.310333 408.993164,481.063904 
	C408.993134,481.063904 408.998291,480.998474 408.671875,480.873413 
	C406.898773,481.853546 405.452087,482.958710 404.005432,484.063873 
	C404.005432,484.063873 404.001251,484.002014 403.686676,483.839844 
	C401.574768,484.805634 399.777466,485.933624 397.980164,487.061584 
	C397.980133,487.061584 397.993866,486.993347 397.692932,486.892639 
	C396.919708,487.214630 396.447418,487.637299 395.975128,488.059998 
	C395.975128,488.059998 395.991028,487.989227 395.689819,487.900909 
	C394.917023,488.228027 394.445435,488.643433 393.973816,489.058868 
	C393.973816,489.058868 393.989685,488.987183 393.646973,488.897949 
	C390.520935,490.293152 387.737640,491.777557 384.954315,493.261993 
	C382.074188,494.410858 379.194031,495.559753 375.724487,496.836182 
	C364.823151,499.804810 354.508759,502.636963 344.209778,505.524200 
	C343.849548,505.625183 343.643036,506.274414 343.364868,506.668121 
	C340.873322,507.107941 338.381805,507.547760 335.207031,507.730591 
	C329.755096,507.990753 324.982605,508.978271 320.218353,508.939941 
	C303.512756,508.805420 286.809998,508.317596 269.753754,507.794464 
	C267.280121,507.236237 265.133789,506.950592 263.041901,506.441284 
	C252.573059,503.892303 242.118484,501.284668 231.425415,498.414551 
	C222.773315,494.753357 214.354691,491.375275 205.936066,487.997192 
	C205.936081,487.997162 206.011200,487.985413 205.957718,487.676819 
	C200.958450,484.935455 196.012650,482.502716 191.066864,480.069946 
	C181.240631,472.812744 171.414398,465.555573 161.348541,457.774658 
	C159.385651,455.839996 157.662354,454.429077 155.939056,453.018188 
	C155.939056,453.018188 155.999054,453.001740 156.078964,452.678497 
	C155.751312,452.239563 155.343735,452.123871 154.936157,452.008179 
	C154.936157,452.008209 154.999634,452.000336 155.078644,451.678345 
	C154.750473,451.240265 154.343307,451.124207 153.936142,451.008118 
	C153.936142,451.008118 153.999588,451.000366 154.079758,450.678101 
	C153.752213,450.239288 153.344513,450.122681 152.936798,450.006104 
	C152.936798,450.006104 153.000565,449.999847 153.074524,449.680725 
	C152.744675,449.242310 152.340866,449.123077 151.937042,449.003845 
	C151.937042,449.003845 152.001511,448.998444 152.073334,448.680054 
	C151.742126,448.242828 151.339066,448.124023 150.936020,448.005188 
	C150.936020,448.005188 150.998978,447.999176 151.121338,447.667847 
	C150.475372,446.893372 149.707031,446.450226 148.938705,446.007111 
	C148.938705,446.007111 149.002487,445.999054 149.069046,445.682434 
	C148.735977,445.244263 148.336349,445.122650 147.936707,445.001038 
	C147.936707,445.001068 148.000854,444.998718 148.124023,444.656189 
	C147.478180,443.883392 146.709167,443.453156 145.940155,443.022949 
	C145.940155,443.022949 145.997238,443.001404 146.203613,442.743378 
	C145.380844,441.431366 144.351700,440.377350 143.322525,439.323364 
	C142.271622,438.032318 141.220734,436.741241 139.865372,435.001160 
	C139.301575,434.428955 139.096695,434.245026 138.946304,434.000366 
	C138.660309,433.994934 138.421356,433.886200 138.141724,433.139313 
	C137.681946,432.399445 137.309891,432.194336 136.937836,431.989258 
	C136.937836,431.989258 137.006744,431.993317 137.040955,431.685913 
	C136.696060,431.254913 136.316971,431.131317 135.937881,431.007721 
	C135.937881,431.007721 135.997742,431.000732 136.174530,430.696289 
	C135.547852,429.590149 134.744385,428.788422 133.940918,427.986725 
	C133.940918,427.986725 134.012283,427.989014 134.013000,427.704712 
	C133.654938,427.278473 133.296173,427.136505 132.937408,426.994507 
	C132.937408,426.994537 133.001938,426.997040 133.124664,426.674255 
	C132.144623,425.236298 131.041855,424.121094 129.939087,423.005890 
	C129.939087,423.005890 129.999908,423.000214 130.149811,422.683533 
	C129.512772,421.576660 128.725845,420.786469 127.938911,419.996277 
	C127.938919,419.996277 128.002502,419.997925 128.127304,419.676880 
	C127.480957,418.569183 126.709801,417.782532 125.938644,416.995880 
	C125.938644,416.995880 126.001518,416.997986 126.136726,416.710876 
	C125.838982,415.622040 125.406029,414.820343 124.864235,413.690369 
	C122.818359,410.914764 120.881332,408.467407 118.944305,406.020050 
	C118.944305,406.020050 118.998421,406.000916 119.169640,405.698364 
	C118.874680,404.927979 118.408501,404.460175 117.942322,403.992340 
	C117.942322,403.992340 118.002235,403.998260 118.148575,403.698364 
	C117.844650,402.926880 117.394386,402.455292 116.944115,401.983734 
	C116.944115,401.983734 117.007538,401.994385 117.104469,401.690216 
	C116.782288,400.918365 116.363174,400.450684 115.944061,399.983002 
	C115.944061,399.983002 116.011070,399.990692 116.029579,399.688049 
	C115.679565,399.261383 115.311035,399.137299 114.942513,399.013245 
	C114.942513,399.013245 114.998726,399.001190 115.199600,398.684692 
	C114.978043,397.406189 114.555611,396.444214 114.111610,395.135925 
	C111.708557,390.188232 109.327065,385.586884 106.945572,380.985535 
	C106.945580,380.985535 107.007866,380.994659 107.115395,380.633972 
	C105.143410,373.978668 102.952454,367.718323 101.004433,361.383301 
	C94.054810,338.782867 91.526474,315.595062 92.183121,291.795837 
	C92.270126,290.646179 92.174149,289.724670 92.148582,288.497131 
	C92.181648,287.567535 92.144310,286.943939 92.258636,286.144409 
	C92.593826,285.696472 92.641258,285.402679 92.662796,284.695557 
	C92.784950,283.221405 92.796921,282.138794 92.922752,280.645874 
	C94.664734,270.934967 96.292854,261.634399 97.920975,252.333817 
	C98.314339,249.414551 98.707687,246.495300 99.493286,243.101898 
	C101.598221,237.776093 103.310905,232.924438 105.171700,227.949890 
	C105.519928,227.623444 105.567932,227.388947 105.587234,226.782196 
	C105.808479,225.968246 105.906288,225.495605 106.262131,224.793945 
	C109.348053,217.695007 112.175941,210.825089 115.003830,203.955154 
	C115.003830,203.955154 115.013313,204.010895 115.327469,203.964813 
	C120.140854,196.802948 124.620888,189.674957 129.148010,182.576996 
	C131.178757,179.393051 133.303741,176.269211 135.700165,173.033646 
	C136.405853,172.648911 136.842773,172.392609 137.182159,172.041916 
	C146.275146,162.645493 154.943924,152.787064 164.568909,143.972565 
	C172.831924,136.405350 182.186005,130.029495 191.408356,123.051804 
	C201.250900,118.259712 210.759857,113.576416 220.210358,108.778015 
	C221.261063,108.244530 221.978851,107.055382 222.851044,106.170303 
	C223.941086,105.775749 225.031128,105.381203 226.734375,105.189308 
	C228.135239,105.294769 228.945145,105.283905 229.707275,105.087593 
	C243.792145,101.459473 257.871307,97.809196 272.250305,94.355728 
	C280.136230,94.025055 287.733490,92.960960 295.308624,93.100235 
	C308.213165,93.337509 321.103790,94.331062 334.405029,95.034096 
	C336.428070,95.110352 338.046326,95.159378 339.817841,95.479782 
	C340.664703,96.065163 341.358307,96.379150 342.452576,96.770935 
	C357.172089,101.467125 371.632538,105.697868 385.755066,110.854080 
	C393.803223,113.792496 401.299805,118.241547 409.044769,122.010361 
	C409.044769,122.010361 408.984161,122.023605 409.166138,122.226151 
	C409.904816,122.625450 410.461517,122.822205 411.018219,123.018951 
	C411.018219,123.018944 410.985992,123.018768 411.068298,123.331253 
	C412.100342,124.099243 413.050110,124.554741 413.999878,125.010239 
	C416.845001,126.788078 419.690094,128.565918 422.854034,130.925659 
	C428.127197,135.001602 433.081512,138.495636 438.035858,141.989670 
	C438.035858,141.989670 437.996307,142.005905 438.044067,142.259628 
	C438.406860,142.676208 438.721832,142.839081 439.036835,143.001938 
	C439.036835,143.001938 438.992126,143.005753 438.993835,143.322571 
	C439.676636,144.093109 440.357788,144.546829 441.038910,145.000565 
	C441.038910,145.000565 440.991364,145.012177 441.067078,145.246033 
	C441.441467,145.656891 441.740143,145.833908 442.038849,146.010910 
	C442.038849,146.010910 441.985870,146.014206 442.061523,146.247772 
	C442.438202,146.658188 442.739197,146.835022 443.040192,147.011856 
	C443.040192,147.011856 442.985291,147.015213 443.065399,147.245102 
	C443.444092,147.654434 443.742645,147.833878 444.041229,148.013321 
	C444.041229,148.013321 443.986481,148.011383 444.005859,148.332397 
	C449.029633,153.432297 454.033997,158.211182 459.038361,162.990082 
	C459.038361,162.990097 458.997375,163.004196 458.995422,163.325226 
	C459.673859,164.091583 460.354187,164.536926 461.034546,164.982254 
	C461.034546,164.982254 460.995850,165.003296 461.020996,165.273697 
	C461.377594,165.694824 461.709045,165.845551 462.040497,165.996277 
	C462.040497,165.996292 461.995728,166.002914 461.920532,166.347107 
	C463.576630,168.796143 465.307953,170.901016 467.039276,173.005890 
	C467.039276,173.005890 466.989105,173.008347 466.959320,173.332520 
	C467.593079,174.500076 468.256653,175.343475 469.038391,176.406494 
	C469.451660,176.754730 469.746704,176.883316 470.041748,177.011902 
	C470.041748,177.011902 469.984283,177.014679 470.042603,177.259064 
	C470.414581,177.672745 470.728241,177.842010 471.041931,178.011292 
	C471.041931,178.011292 470.986267,178.013596 471.029755,178.270935 
	C471.396820,178.686646 471.720428,178.845001 472.044006,179.003357 
	C472.044006,179.003357 471.993042,179.005280 471.925598,179.349960 
	C473.541107,182.475250 475.224121,185.255844 476.981079,188.383987 
	C479.717834,192.486053 482.380646,196.240570 485.043427,199.995102 
	C485.043427,199.995102 484.996094,200.003983 484.925781,200.365265 
	C486.251312,203.151489 487.647186,205.576401 489.043030,208.001328 
	C489.043030,208.001328 488.993866,208.005020 488.923767,208.349701 
	C489.498169,209.937195 490.142700,211.179993 490.820618,212.788574 
	C496.898499,228.488358 502.792389,243.866913 505.505676,260.243317 
	C505.614685,260.901245 506.512238,261.428528 507.042419,262.016663 
	C507.042419,262.016663 506.986542,262.007568 506.892548,262.295593 
	C506.851257,263.020508 506.903961,263.457458 506.841248,264.018158 
	C506.821899,264.426727 506.917999,264.711517 507.009033,265.429565 
	C507.087433,267.026123 507.196899,268.188232 507.250488,269.352936 
	C507.913788,283.768555 508.978210,298.181732 509.075836,312.601410 
	C509.136292,321.531830 507.724731,330.472229 506.973938,339.408142 
	C506.973907,339.408142 507.019867,339.726562 506.766479,339.950439 
	C506.277832,340.413208 506.175385,340.699615 506.075378,341.406616 
	C502.980957,352.525543 500.016815,363.271454 496.837830,374.291718 
	C494.082214,381.062744 491.541504,387.559418 489.000793,394.056061 
	C489.000793,394.056061 488.987183,393.990509 488.688446,394.072296 
	C488.261597,394.788330 488.133453,395.422577 488.005310,396.056824 
	C488.005310,396.056824 487.991089,395.993134 487.678650,396.054047 
	C484.575012,401.426819 481.783813,406.738678 478.992645,412.050537 
	C478.992645,412.050537 478.985687,411.984619 478.877594,412.039276 
	C478.473846,412.283539 478.178223,412.473114 477.882629,412.662720 
M126.480804,247.497574 
	C124.005806,259.516144 121.493019,271.527130 119.084732,283.559082 
	C118.542221,286.269531 119.353233,287.933960 122.689407,287.926056 
	C157.655319,287.843201 192.621613,287.895691 227.586914,287.726715 
	C229.102997,287.719421 231.422989,286.262482 231.979614,284.909454 
	C234.243301,279.406952 235.965027,273.681458 238.257721,267.447968 
	C239.343781,265.785583 240.408585,264.108856 241.519043,262.462952 
	C262.208557,231.796631 300.699951,221.543457 333.139465,238.046616 
	C347.277283,245.239014 357.394653,256.403839 365.029358,270.866180 
	C366.539703,275.266754 368.173950,279.630005 369.513062,284.082092 
	C370.294373,286.679749 371.541168,287.898163 374.425232,287.892426 
	C409.240204,287.823212 444.055420,287.830597 478.870422,287.899323 
	C481.802826,287.905121 483.522217,287.040985 482.890015,283.932770 
	C480.383881,271.611572 477.763489,259.313629 475.127838,246.226715 
	C465.435455,215.376678 448.828064,188.827713 424.889252,167.115448 
	C379.874420,126.287460 326.820221,110.506142 267.402161,121.692093 
	C205.332031,133.377304 161.003662,169.663162 134.146790,226.906219 
	C131.140808,233.313171 129.370529,240.299881 126.480804,247.497574 
M370.300903,315.213470 
	C370.147125,315.860901 369.999634,316.509857 369.838684,317.155487 
	C361.858276,349.167816 334.054138,371.491180 301.842407,371.749573 
	C269.098267,372.012268 240.988953,350.399689 232.397339,318.362457 
	C232.024506,316.972168 231.590042,315.598389 231.274689,314.524719 
	C193.583374,314.524719 156.353104,314.524719 118.325722,314.524719 
	C119.823532,323.526489 120.834068,332.132202 122.719109,340.541840 
	C144.591614,438.120331 239.806534,499.721130 337.934875,479.902161 
	C415.424896,464.251465 475.865662,397.101318 482.767639,318.916992 
	C482.897522,317.446198 482.316711,315.912628 481.479889,314.269684 
	C481.285248,314.320648 481.090576,314.371643 479.995392,314.203705 
	C466.999939,314.194000 454.004456,314.153198 441.009064,314.181366 
	C418.023346,314.231201 395.037689,314.322968 371.395996,314.296387 
	C371.246002,314.458954 371.095978,314.621552 370.300903,315.213470 
M268.975250,270.479614 
	C254.764587,286.596100 252.725128,307.750610 263.740448,324.778015 
	C274.637268,341.622223 295.048859,349.171692 313.808807,343.296356 
	C331.336639,337.806915 343.961395,322.176178 345.072571,304.588654 
	C346.275360,285.551392 336.480988,268.758667 319.593079,260.903290 
	C302.461578,252.934631 283.751038,256.321808 268.975250,270.479614 
z"/>
<path fill="#172C81" opacity="1.000000" stroke="none" 
	d="
M191.057602,123.126801 
	C182.186005,130.029495 172.831924,136.405350 164.568909,143.972565 
	C154.943924,152.787064 146.275146,162.645493 137.182159,172.041916 
	C136.842773,172.392609 136.405853,172.648911 135.400055,173.011673 
	C134.587219,173.067520 134.388733,173.060913 134.190247,173.054321 
	C141.670746,164.582504 148.897415,155.866821 156.720947,147.724640 
	C161.938431,142.294662 167.782593,137.391037 173.761307,132.791275 
	C178.956787,128.794098 184.734894,125.554230 190.629562,122.231995 
	C191.021591,122.698456 191.039597,122.912628 191.057602,123.126801 
z"/>
<path fill="#3563A4" opacity="1.000000" stroke="none" 
	d="
M92.000137,292.024017 
	C91.526474,315.595062 94.054810,338.782867 101.004433,361.383301 
	C102.952454,367.718323 105.143410,373.978668 107.106865,380.664246 
	C100.857529,372.627289 100.161713,362.292053 96.952904,352.827728 
	C89.091629,329.640991 91.383888,305.709473 91.335831,281.486084 
	C92.051086,281.028595 92.429993,281.042389 92.808899,281.056152 
	C92.796921,282.138794 92.784950,283.221405 92.527580,284.870728 
	C92.136406,285.714294 92.077995,286.008606 92.106964,286.320343 
	C92.144310,286.943939 92.181648,287.567535 92.105423,288.901245 
	C91.994614,290.415558 91.997375,291.219788 92.000137,292.024017 
z"/>
<path fill="#2B589C" opacity="1.000000" stroke="none" 
	d="
M506.956665,263.894379 
	C506.903961,263.457458 506.851257,263.020508 506.901489,262.268738 
	C507.994171,264.802856 509.620148,267.599060 509.861847,270.510193 
	C510.827423,282.139526 512.019714,293.813324 511.864868,305.453857 
	C511.721710,316.216827 509.978455,326.959686 508.875580,337.704803 
	C508.825317,338.194641 508.141571,338.619446 507.363373,339.241333 
	C507.724731,330.472229 509.136292,321.531830 509.075836,312.601410 
	C508.978210,298.181732 507.913788,283.768555 507.250488,269.352936 
	C507.196899,268.188232 507.087433,267.026123 507.010193,265.153198 
	C506.996552,264.260559 506.976624,264.077484 506.956665,263.894379 
z"/>
<path fill="#132176" opacity="1.000000" stroke="none" 
	d="
M409.031982,121.652206 
	C401.299805,118.241547 393.803223,113.792496 385.755066,110.854080 
	C371.632538,105.697868 357.172089,101.467125 342.438110,96.497826 
	C342.004639,95.775635 341.986267,95.404366 341.986115,95.011658 
	C342.004333,94.990227 342.038788,94.945747 342.038788,94.945747 
	C345.925201,95.610596 349.926544,95.889114 353.678680,97.005348 
	C372.705261,102.665642 391.414215,109.140099 408.192444,120.121666 
	C408.564453,120.365143 408.747803,120.896805 409.031982,121.652206 
z"/>
<path fill="#4D8CBD" opacity="1.000000" stroke="none" 
	d="
M270.106140,507.963898 
	C286.809998,508.317596 303.512756,508.805420 320.218353,508.939941 
	C324.982605,508.978271 329.755096,507.990753 334.788025,507.722778 
	C333.804626,508.651306 332.594299,509.835510 331.303558,509.930756 
	C320.360046,510.738281 309.394287,511.966370 298.450348,511.832336 
	C288.575073,511.711395 278.718842,510.034637 268.657471,508.724487 
	C269.009186,508.257965 269.557678,508.110931 270.106140,507.963898 
z"/>
<path fill="#122169" opacity="1.000000" stroke="none" 
	d="
M334.000275,95.006866 
	C321.103790,94.331062 308.213165,93.337509 295.308624,93.100235 
	C287.733490,92.960960 280.136230,94.025055 272.263062,94.097290 
	C271.979309,93.475220 271.981384,93.303719 271.983459,93.132210 
	C285.009796,92.410019 298.030151,91.327637 311.064911,91.110268 
	C318.089844,90.993126 325.139435,92.357300 332.727783,93.336563 
	C333.518524,94.082291 333.759399,94.544579 334.000275,95.006866 
z"/>
<path fill="#132176" opacity="1.000000" stroke="none" 
	d="
M271.544067,93.081558 
	C271.981384,93.303719 271.979309,93.475220 271.964478,93.905159 
	C257.871307,97.809196 243.792145,101.459473 229.707275,105.087593 
	C228.945145,105.283905 228.135239,105.294769 227.087860,105.180649 
	C237.776505,99.035789 249.551727,95.709564 261.811493,93.963081 
	C264.890991,93.524399 268.006012,93.334915 271.544067,93.081558 
z"/>
<path fill="#24418E" opacity="1.000000" stroke="none" 
	d="
M507.014404,261.666321 
	C506.512238,261.428528 505.614685,260.901245 505.505676,260.243317 
	C502.792389,243.866913 496.898499,228.488358 490.896759,212.392120 
	C490.981171,211.365677 491.022797,211.101456 491.064423,210.837234 
	C498.029236,225.270752 504.030670,240.022247 506.015839,256.848755 
	C506.295166,258.370392 506.563385,259.146301 506.831573,259.922211 
	C506.883148,260.386810 506.934753,260.851410 507.014404,261.666321 
z"/>
<path fill="#1F3B8B" opacity="1.000000" stroke="none" 
	d="
M133.996216,173.344940 
	C134.388733,173.060913 134.587219,173.067520 135.085831,173.096115 
	C133.303741,176.269211 131.178757,179.393051 129.148010,182.576996 
	C124.620888,189.674957 120.140854,196.802948 115.299210,203.965637 
	C118.841537,192.399780 125.679237,182.619003 133.996216,173.344940 
z"/>
<path fill="#15257A" opacity="1.000000" stroke="none" 
	d="
M191.408356,123.051804 
	C191.039597,122.912628 191.021591,122.698456 190.981812,122.162018 
	C200.434799,114.799217 211.007767,109.949112 222.494019,106.189392 
	C221.978851,107.055382 221.261063,108.244530 220.210358,108.778015 
	C210.759857,113.576416 201.250900,118.259712 191.408356,123.051804 
z"/>
<path fill="#4787BC" opacity="1.000000" stroke="none" 
	d="
M269.753754,507.794464 
	C269.557678,508.110931 269.009186,508.257965 268.253357,508.601807 
	C259.752197,507.092529 251.427017,505.522736 243.177277,503.625031 
	C238.790298,502.615906 234.533997,501.038666 230.475708,499.312012 
	C231.041443,498.836731 231.350159,498.767212 231.658890,498.697693 
	C242.118484,501.284668 252.573059,503.892303 263.041901,506.441284 
	C265.133789,506.950592 267.280121,507.236237 269.753754,507.794464 
z"/>
<path fill="#29539B" opacity="1.000000" stroke="none" 
	d="
M92.922760,280.645844 
	C92.429993,281.042389 92.051086,281.028595 91.387314,281.021729 
	C92.482025,271.850464 93.834450,262.667847 95.313499,253.505676 
	C95.396011,252.994537 96.524864,252.652283 97.543839,252.282623 
	C96.292854,261.634399 94.664734,270.934967 92.922760,280.645844 
z"/>
<path fill="#3563A4" opacity="1.000000" stroke="none" 
	d="
M497.052704,374.017334 
	C500.016815,363.271454 502.980957,352.525543 506.213806,341.401550 
	C506.482513,341.023468 506.760223,341.009216 506.760223,341.009216 
	C505.583679,352.240082 503.881470,363.331604 497.812256,373.686707 
	C497.439789,374.008972 497.052704,374.017334 497.052704,374.017334 
z"/>
<path fill="#4787BC" opacity="1.000000" stroke="none" 
	d="
M343.732788,506.625793 
	C343.643036,506.274414 343.849548,505.625183 344.209778,505.524200 
	C354.508759,502.636963 364.823151,499.804810 375.531250,497.030029 
	C368.157013,499.743988 360.419464,502.494995 352.598328,504.983093 
	C349.871979,505.850403 346.939178,506.068756 343.732788,506.625793 
z"/>
<path fill="#4883B8" opacity="1.000000" stroke="none" 
	d="
M231.425415,498.414581 
	C231.350159,498.767212 231.041443,498.836731 230.265900,498.992004 
	C223.105774,496.399200 216.394913,493.763062 209.734467,491.005157 
	C208.446396,490.471832 207.355408,489.462524 206.054779,488.334991 
	C214.354691,491.375275 222.773315,494.753357 231.425415,498.414581 
z"/>
<path fill="#1F3B8B" opacity="1.000000" stroke="none" 
	d="
M114.651390,204.019028 
	C112.175941,210.825089 109.348053,217.695007 106.251358,224.433853 
	C105.975952,223.822647 105.969345,223.342545 105.962746,222.862427 
	C108.741486,216.602585 111.520218,210.342743 114.651390,204.019028 
z"/>
<path fill="#1A2B78" opacity="1.000000" stroke="none" 
	d="
M459.013611,162.641388 
	C454.033997,158.211182 449.029633,153.432297 444.010803,148.305450 
	C448.993896,152.735901 453.991364,157.514282 459.013611,162.641388 
z"/>
<path fill="#26489B" opacity="1.000000" stroke="none" 
	d="
M105.643784,223.036011 
	C105.969345,223.342545 105.975952,223.822647 105.993332,224.662857 
	C105.906288,225.495605 105.808479,225.968246 105.480598,226.917389 
	C105.121361,227.602219 105.045715,227.828522 105.023590,228.072784 
	C103.310905,232.924438 101.598221,237.776093 99.563850,242.699524 
	C101.269722,236.250732 103.297272,229.730164 105.643784,223.036011 
z"/>
<path fill="#3A6CA5" opacity="1.000000" stroke="none" 
	d="
M496.837830,374.291718 
	C497.052704,374.017334 497.439789,374.008972 497.633362,374.005981 
	C495.106201,380.606659 492.385498,387.210358 489.332794,393.935059 
	C491.541504,387.559418 494.082214,381.062744 496.837830,374.291718 
z"/>
<path fill="#1A2B78" opacity="1.000000" stroke="none" 
	d="
M437.919586,141.667419 
	C433.081512,138.495636 428.127197,135.001602 423.067810,131.170532 
	C425.118774,131.855927 427.501190,132.573944 429.378937,133.970535 
	C432.364075,136.190765 435.012482,138.863724 437.919586,141.667419 
z"/>
<path fill="#3A6CA5" opacity="1.000000" stroke="none" 
	d="
M479.330719,411.963257 
	C481.783813,406.738678 484.575012,401.426819 487.710876,396.049011 
	C485.259979,401.280701 482.464386,406.578308 479.330719,411.963257 
z"/>
<path fill="#4883B8" opacity="1.000000" stroke="none" 
	d="
M191.163635,480.407196 
	C196.012650,482.502716 200.958450,484.935455 205.965118,487.714111 
	C201.104156,485.621460 196.182281,483.182953 191.163635,480.407196 
z"/>
<path fill="#3563A4" opacity="1.000000" stroke="none" 
	d="
M106.953140,381.375549 
	C109.327065,385.586884 111.708557,390.188232 114.058380,395.567291 
	C113.987473,396.630890 113.948227,396.916779 113.908974,397.202667 
	C111.592880,392.056946 109.276794,386.911255 106.953140,381.375549 
z"/>
<path fill="#223A85" opacity="1.000000" stroke="none" 
	d="
M485.030975,199.629745 
	C482.380646,196.240570 479.717834,192.486053 477.299133,188.359665 
	C477.754883,187.971039 477.966553,187.954285 478.178223,187.937515 
	C480.458313,191.713135 482.738434,195.488770 485.030975,199.629745 
z"/>
<path fill="#1F3B8B" opacity="1.000000" stroke="none" 
	d="
M478.107300,187.587769 
	C477.966553,187.954285 477.754883,187.971039 477.225189,188.012115 
	C475.224121,185.255844 473.541107,182.475250 471.933472,179.325699 
	C474.018005,181.717178 476.027161,184.477615 478.107300,187.587769 
z"/>
<path fill="#4781B0" opacity="1.000000" stroke="none" 
	d="
M385.350098,493.173706 
	C387.737640,491.777557 390.520935,490.293152 393.683105,488.904480 
	C391.289917,490.361938 388.517883,491.723663 385.350098,493.173706 
z"/>
<path fill="#3A6CA5" opacity="1.000000" stroke="none" 
	d="
M118.946671,406.379761 
	C120.881332,408.467407 122.818359,410.914764 124.581284,413.698059 
	C124.218575,414.039917 124.029991,414.045837 123.841400,414.051758 
	C122.210617,411.614319 120.579826,409.176880 118.946671,406.379761 
z"/>
<path fill="#223A85" opacity="1.000000" stroke="none" 
	d="
M467.013489,172.650208 
	C465.307953,170.901016 463.576630,168.796143 461.929688,166.326431 
	C463.671967,168.072556 465.329865,170.183533 467.013489,172.650208 
z"/>
<path fill="#223A85" opacity="1.000000" stroke="none" 
	d="
M489.009094,207.633972 
	C487.647186,205.576401 486.251312,203.151489 484.933533,200.342484 
	C486.332764,202.394485 487.653961,204.830551 489.009094,207.633972 
z"/>
<path fill="#427EB6" opacity="1.000000" stroke="none" 
	d="
M453.335999,445.948120 
	C454.799683,443.680084 456.581665,441.298767 458.713257,438.955627 
	C457.260040,441.274170 455.457184,443.554504 453.335999,445.948120 
z"/>
<path fill="#427EB6" opacity="1.000000" stroke="none" 
	d="
M439.524323,458.505341 
	C440.995636,457.007202 442.712097,455.305634 444.742737,453.815765 
	C443.294434,455.452301 441.531921,456.877106 439.524323,458.505341 
z"/>
<path fill="#132176" opacity="1.000000" stroke="none" 
	d="
M334.405029,95.034096 
	C333.759399,94.544579 333.518524,94.082291 333.169189,93.384277 
	C335.880432,93.551552 338.700104,93.954529 341.779297,94.651627 
	C342.038788,94.945747 342.004333,94.990227 341.602112,95.014526 
	C340.688110,95.095345 340.176361,95.151871 339.664612,95.208405 
	C338.046326,95.159378 336.428070,95.110352 334.405029,95.034096 
z"/>
<path fill="#4781B0" opacity="1.000000" stroke="none" 
	d="
M398.353729,487.046204 
	C399.777466,485.933624 401.574768,484.805634 403.716125,483.849487 
	C402.282562,485.024445 400.504913,486.027588 398.353729,487.046204 
z"/>
<path fill="#4781B0" opacity="1.000000" stroke="none" 
	d="
M156.043579,453.329834 
	C157.662354,454.429077 159.385651,455.839996 161.050217,457.608490 
	C159.377045,456.524536 157.762573,455.083008 156.043579,453.329834 
z"/>
<path fill="#427EB6" opacity="1.000000" stroke="none" 
	d="
M460.336548,437.967133 
	C461.094910,436.422852 462.178650,434.782562 463.596436,433.105865 
	C462.841003,434.670044 461.751465,436.270569 460.336548,437.967133 
z"/>
<path fill="#4781B0" opacity="1.000000" stroke="none" 
	d="
M404.358643,484.046936 
	C405.452087,482.958710 406.898773,481.853546 408.703918,480.880432 
	C407.612213,482.018341 406.162018,483.024170 404.358643,484.046936 
z"/>
<path fill="#4575B0" opacity="1.000000" stroke="none" 
	d="
M129.939941,423.352966 
	C131.041855,424.121094 132.144623,425.236298 133.118439,426.705933 
	C131.973251,425.940308 130.957031,424.820190 129.939941,423.352966 
z"/>
<path fill="#4781B0" opacity="1.000000" stroke="none" 
	d="
M143.254898,439.633362 
	C144.351700,440.377350 145.380844,441.431366 146.187805,442.769470 
	C145.039490,442.016846 144.113373,440.980103 143.254898,439.633362 
z"/>
<path fill="#223A85" opacity="1.000000" stroke="none" 
	d="
M491.054138,210.512878 
	C491.022797,211.101456 490.981171,211.365677 490.863403,212.026337 
	C490.142700,211.179993 489.498169,209.937195 488.931641,208.326355 
	C489.687683,208.701721 490.365784,209.445129 491.054138,210.512878 
z"/>
<path fill="#4575B0" opacity="1.000000" stroke="none" 
	d="
M133.959106,428.324280 
	C134.744385,428.788422 135.547852,429.590149 136.163193,430.724182 
	C135.309158,430.258301 134.643234,429.460083 133.959106,428.324280 
z"/>
<path fill="#4575B0" opacity="1.000000" stroke="none" 
	d="
M127.952820,420.333374 
	C128.725845,420.786469 129.512772,421.576660 130.141312,422.712860 
	C129.310867,422.262756 128.638809,421.466614 127.952820,420.333374 
z"/>
<path fill="#4575B0" opacity="1.000000" stroke="none" 
	d="
M125.960732,417.329834 
	C126.709801,417.782532 127.480957,418.569183 128.120605,419.707947 
	C127.320335,419.261322 126.651573,418.462524 125.960732,417.329834 
z"/>
<path fill="#223A85" opacity="1.000000" stroke="none" 
	d="
M468.920197,176.186859 
	C468.256653,175.343475 467.593079,174.500076 466.964081,173.307861 
	C467.601379,173.428360 468.204132,173.897705 468.896118,174.957336 
	C468.963654,175.760727 468.941925,175.973801 468.920197,176.186859 
z"/>
<path fill="#132176" opacity="1.000000" stroke="none" 
	d="
M413.825439,124.747063 
	C413.050110,124.554741 412.100342,124.099243 411.064117,123.315689 
	C411.868774,123.486382 412.759857,123.985130 413.825439,124.747063 
z"/>
<path fill="#4781B0" opacity="1.000000" stroke="none" 
	d="
M409.344421,481.050110 
	C409.856598,480.310333 410.720062,479.556763 411.964569,478.884125 
	C411.462280,479.655457 410.578979,480.345886 409.344421,481.050110 
z"/>
<path fill="#4781B0" opacity="1.000000" stroke="none" 
	d="
M148.967224,446.356567 
	C149.707031,446.450226 150.475372,446.893372 151.115662,447.698944 
	C150.323669,447.609619 149.659714,447.157806 148.967224,446.356567 
z"/>
<path fill="#4575B0" opacity="1.000000" stroke="none" 
	d="
M123.901215,414.379181 
	C124.029991,414.045837 124.218575,414.039917 124.690125,414.026306 
	C125.406029,414.820343 125.838982,415.622040 126.128708,416.741302 
	C125.310661,416.274750 124.635841,415.490692 123.901215,414.379181 
z"/>
<path fill="#1A2B78" opacity="1.000000" stroke="none" 
	d="
M441.027252,144.651581 
	C440.357788,144.546829 439.676636,144.093109 439.000061,143.301025 
	C439.674927,143.409286 440.345245,143.855942 441.027252,144.651581 
z"/>
<path fill="#4781B0" opacity="1.000000" stroke="none" 
	d="
M414.438751,477.591187 
	C414.616974,477.257172 414.969482,476.779022 415.533325,476.187439 
	C415.367493,476.531677 414.990265,476.989410 414.438751,477.591187 
z"/>
<path fill="#2B589C" opacity="1.000000" stroke="none" 
	d="
M506.890778,259.582916 
	C506.563385,259.146301 506.295166,258.370392 506.023773,257.273132 
	C506.330383,257.715759 506.640167,258.479675 506.890778,259.582916 
z"/>
<path fill="#4781B0" opacity="1.000000" stroke="none" 
	d="
M146.007141,443.321411 
	C146.709167,443.453156 147.478180,443.883392 148.119064,444.687866 
	C147.352005,444.581390 146.713074,444.100647 146.007141,443.321411 
z"/>
<path fill="#1A2B78" opacity="1.000000" stroke="none" 
	d="
M460.953735,164.691284 
	C460.354187,164.536926 459.673859,164.091583 459.001282,163.304321 
	C459.630371,163.441711 460.251617,163.921021 460.953735,164.691284 
z"/>
<path fill="#3A6CA5" opacity="1.000000" stroke="none" 
	d="
M113.927620,397.502747 
	C113.948227,396.916779 113.987473,396.630890 114.079941,395.913635 
	C114.555611,396.444214 114.978043,397.406189 115.184113,398.708862 
	C114.627258,398.634003 114.286766,398.218445 113.927620,397.502747 
z"/>
<path fill="#4781B0" opacity="1.000000" stroke="none" 
	d="
M396.306763,488.036926 
	C396.447418,487.637299 396.919708,487.214630 397.727173,486.898987 
	C397.587708,487.341980 397.113037,487.677917 396.306763,488.036926 
z"/>
<path fill="#3A6CA5" opacity="1.000000" stroke="none" 
	d="
M115.959213,400.309113 
	C116.363174,400.450684 116.782288,400.918365 117.095963,401.721252 
	C116.651810,401.582703 116.313087,401.108948 115.959213,400.309113 
z"/>
<path fill="#3A6CA5" opacity="1.000000" stroke="none" 
	d="
M116.960358,402.306946 
	C117.394386,402.455292 117.844650,402.926880 118.136665,403.726013 
	C117.644470,403.579102 117.310539,403.104614 116.960358,402.306946 
z"/>
<path fill="#3A6CA5" opacity="1.000000" stroke="none" 
	d="
M117.946747,404.320007 
	C118.408501,404.460175 118.874680,404.927979 119.155075,405.723083 
	C118.629929,405.582825 118.290550,405.115265 117.946747,404.320007 
z"/>
<path fill="#1F3B8B" opacity="1.000000" stroke="none" 
	d="
M469.038391,176.406494 
	C468.941925,175.973801 468.963654,175.760727 469.008850,175.226807 
	C469.352142,175.398392 469.671936,175.890823 470.016754,176.697571 
	C469.746704,176.883316 469.451660,176.754730 469.038391,176.406494 
z"/>
<path fill="#132176" opacity="1.000000" stroke="none" 
	d="
M410.824219,122.788139 
	C410.461517,122.822205 409.904816,122.625450 409.159302,122.195892 
	C409.523743,122.161163 410.076996,122.359245 410.824219,122.788139 
z"/>
<path fill="#3A6CA5" opacity="1.000000" stroke="none" 
	d="
M488.317078,395.954529 
	C488.133453,395.422577 488.261597,394.788330 488.721222,394.065552 
	C488.911438,394.602081 488.770142,395.227173 488.317078,395.954529 
z"/>
<path fill="#3A6CA5" opacity="1.000000" stroke="none" 
	d="
M478.084717,412.562622 
	C478.178223,412.473114 478.473846,412.283539 478.910522,412.035461 
	C478.807709,412.156311 478.552795,412.318176 478.084717,412.562622 
z"/>
<path fill="#4781B0" opacity="1.000000" stroke="none" 
	d="
M394.305664,489.033325 
	C394.445435,488.643433 394.917023,488.228027 395.725464,487.907715 
	C395.587372,488.337799 395.112457,488.672791 394.305664,489.033325 
z"/>
<path fill="#4781B0" opacity="1.000000" stroke="none" 
	d="
M153.996689,451.279114 
	C154.343307,451.124207 154.750473,451.240265 155.074722,451.710083 
	C154.680267,451.892578 154.368759,451.721313 153.996689,451.279114 
z"/>
<path fill="#427EB6" opacity="1.000000" stroke="none" 
	d="
M445.275085,453.996063 
	C445.122314,453.654938 445.235779,453.245911 445.706909,452.921753 
	C445.890106,453.313843 445.715698,453.621002 445.275085,453.996063 
z"/>
<path fill="#427EB6" opacity="1.000000" stroke="none" 
	d="
M446.277100,453.002869 
	C446.120972,452.651581 446.234802,452.238983 446.706421,451.918884 
	C446.891846,452.321442 446.719452,452.631500 446.277100,453.002869 
z"/>
<path fill="#4781B0" opacity="1.000000" stroke="none" 
	d="
M154.996979,452.279419 
	C155.343735,452.123871 155.751312,452.239563 156.076431,452.709503 
	C155.681915,452.892731 155.369858,452.721680 154.996979,452.279419 
z"/>
<path fill="#427EB6" opacity="1.000000" stroke="none" 
	d="
M447.287231,452.010986 
	C447.121826,451.647095 447.231689,451.230225 447.702698,450.912018 
	C447.896729,451.326447 447.729645,451.642273 447.287231,452.010986 
z"/>
<path fill="#1A2B78" opacity="1.000000" stroke="none" 
	d="
M438.960999,142.747101 
	C438.721832,142.839081 438.406860,142.676208 438.046082,142.238342 
	C438.295258,142.139648 438.590210,142.315948 438.960999,142.747101 
z"/>
<path fill="#1F3B8B" opacity="1.000000" stroke="none" 
	d="
M471.969513,178.743469 
	C471.720428,178.845001 471.396820,178.686646 471.031860,178.243164 
	C471.292023,178.133209 471.593506,178.308380 471.969513,178.743469 
z"/>
<path fill="#1F3B8B" opacity="1.000000" stroke="none" 
	d="
M470.954468,177.759598 
	C470.728241,177.842010 470.414581,177.672745 470.043518,177.230316 
	C470.279724,177.140762 470.573364,177.324326 470.954468,177.759598 
z"/>
<path fill="#223A85" opacity="1.000000" stroke="none" 
	d="
M461.977661,165.731598 
	C461.709045,165.845551 461.377594,165.694824 461.022919,165.251740 
	C461.304718,165.128571 461.609772,165.297760 461.977661,165.731598 
z"/>
<path fill="#1A2B78" opacity="1.000000" stroke="none" 
	d="
M443.946716,147.767334 
	C443.742645,147.833878 443.444092,147.654434 443.066498,147.217621 
	C443.275726,147.147263 443.563965,147.334305 443.946716,147.767334 
z"/>
<path fill="#1A2B78" opacity="1.000000" stroke="none" 
	d="
M442.949341,146.763885 
	C442.739197,146.835022 442.438202,146.658188 442.063110,146.221283 
	C442.278809,146.146118 442.568634,146.331009 442.949341,146.763885 
z"/>
<path fill="#1A2B78" opacity="1.000000" stroke="none" 
	d="
M441.948975,145.763000 
	C441.740143,145.833908 441.441467,145.656891 441.066467,145.221558 
	C441.279846,145.147186 441.569458,145.331146 441.948975,145.763000 
z"/>
<path fill="#3A6CA5" opacity="1.000000" stroke="none" 
	d="
M115.000626,399.285889 
	C115.311035,399.137299 115.679565,399.261383 116.025650,399.721558 
	C115.688385,399.891296 115.373558,399.724945 115.000626,399.285889 
z"/>
<path fill="#2B589C" opacity="1.000000" stroke="none" 
	d="
M506.819885,340.769592 
	C506.760223,341.009216 506.482513,341.023468 506.344116,341.028503 
	C506.175385,340.699615 506.277832,340.413208 506.737518,340.108673 
	C506.961975,340.042999 506.879517,340.529968 506.819885,340.769592 
z"/>
<path fill="#4575B0" opacity="1.000000" stroke="none" 
	d="
M133.009460,427.262512 
	C133.296173,427.136505 133.654938,427.278473 134.013260,427.740417 
	C133.702393,427.883759 133.391953,427.707153 133.009460,427.262512 
z"/>
<path fill="#4575B0" opacity="1.000000" stroke="none" 
	d="
M136.003220,431.277222 
	C136.316971,431.131317 136.696060,431.254913 137.039108,431.720398 
	C136.691559,431.890411 136.380051,431.718567 136.003220,431.277222 
z"/>
<path fill="#4575B0" opacity="1.000000" stroke="none" 
	d="
M137.013519,432.282471 
	C137.309891,432.194336 137.681946,432.399445 138.045105,432.962524 
	C137.720520,433.072235 137.404846,432.823944 137.013519,432.282471 
z"/>
<path fill="#4575B0" opacity="1.000000" stroke="none" 
	d="
M139.114105,434.122498 
	C139.096695,434.245026 139.301575,434.428955 139.728561,434.672302 
	C139.659103,434.646149 139.454330,434.463562 139.114105,434.122498 
z"/>
<path fill="#427EB6" opacity="1.000000" stroke="none" 
	d="
M459.266846,439.005066 
	C459.128571,438.681183 459.266266,438.298676 459.734497,437.957184 
	C459.890961,438.314301 459.716888,438.630402 459.266846,439.005066 
z"/>
<path fill="#427EB6" opacity="1.000000" stroke="none" 
	d="
M448.278748,451.000061 
	C448.123444,450.653564 448.236969,450.242859 448.707336,449.919220 
	C448.891968,450.316132 448.719757,450.626007 448.278748,451.000061 
z"/>
<path fill="#4781B0" opacity="1.000000" stroke="none" 
	d="
M148.007050,445.267212 
	C148.336349,445.122650 148.735977,445.244263 149.067352,445.714539 
	C148.691864,445.886627 148.384628,445.710022 148.007050,445.267212 
z"/>
<path fill="#427EB6" opacity="1.000000" stroke="none" 
	d="
M452.278656,447.002747 
	C452.120758,446.650391 452.233826,446.236633 452.705414,445.914459 
	C452.892487,446.317810 452.721039,446.629578 452.278656,447.002747 
z"/>
<path fill="#427EB6" opacity="1.000000" stroke="none" 
	d="
M451.273499,447.999573 
	C451.122437,447.655792 451.240173,447.247345 451.711182,446.922913 
	C451.890411,447.316254 451.716400,447.625580 451.273499,447.999573 
z"/>
<path fill="#4781B0" opacity="1.000000" stroke="none" 
	d="
M151.002838,448.272949 
	C151.339066,448.124023 151.742126,448.242828 152.070663,448.712280 
	C151.687317,448.888824 151.378479,448.714783 151.002838,448.272949 
z"/>
<path fill="#427EB6" opacity="1.000000" stroke="none" 
	d="
M450.273682,448.999451 
	C450.122589,448.658691 450.240570,448.253021 450.711395,447.926086 
	C450.890442,448.314728 450.716614,448.624603 450.273682,448.999451 
z"/>
<path fill="#4781B0" opacity="1.000000" stroke="none" 
	d="
M152.002182,449.272339 
	C152.340866,449.123077 152.744675,449.242310 153.071320,449.712585 
	C152.685211,449.889313 152.376266,449.715057 152.002182,449.272339 
z"/>
<path fill="#427EB6" opacity="1.000000" stroke="none" 
	d="
M449.274872,449.999451 
	C449.122406,449.658417 449.238983,449.252533 449.709961,448.925659 
	C449.890869,449.314667 449.717407,449.624634 449.274872,449.999451 
z"/>
<path fill="#4781B0" opacity="1.000000" stroke="none" 
	d="
M152.996796,450.277435 
	C153.344513,450.122681 153.752213,450.239288 154.075775,450.709839 
	C153.680023,450.892120 153.368408,450.720459 152.996796,450.277435 
z"/>
<path fill="#F3F3FA" opacity="1.000000" stroke="none" 
	d="
M482.067444,314.408356 
	C482.316711,315.912628 482.897522,317.446198 482.767639,318.916992 
	C475.865662,397.101318 415.424896,464.251465 337.934875,479.902161 
	C239.806534,499.721130 144.591614,438.120331 122.719109,340.541840 
	C120.834068,332.132202 119.823532,323.526489 118.325722,314.524719 
	C156.353104,314.524719 193.583374,314.524719 231.274689,314.524719 
	C231.590042,315.598389 232.024506,316.972168 232.397339,318.362457 
	C240.988953,350.399689 269.098267,372.012268 301.842407,371.749573 
	C334.054138,371.491180 361.858276,349.167816 369.838684,317.155487 
	C369.999634,316.509857 370.147125,315.860901 370.773926,315.153320 
	C371.515289,314.861176 371.783630,314.629150 372.052002,314.397156 
	C395.037689,314.322968 418.023346,314.231201 441.009064,314.181366 
	C454.004456,314.153198 466.999939,314.194000 480.554596,314.523865 
	C481.431671,314.698761 481.749542,314.553558 482.067444,314.408356 
z"/>
<path fill="#E13A1D" opacity="1.000000" stroke="none" 
	d="
M364.903107,270.152344 
	C357.394653,256.403839 347.277283,245.239014 333.139465,238.046616 
	C300.699951,221.543457 262.208557,231.796631 241.519043,262.462952 
	C240.408585,264.108856 239.343781,265.785583 237.651566,267.729126 
	C222.800430,266.001862 208.450531,264.542603 194.336990,261.846191 
	C176.647705,258.466766 159.154999,254.060425 141.571579,250.123413 
	C136.734177,249.040283 131.875885,248.050400 127.027184,247.017731 
	C129.370529,240.299881 131.140808,233.313171 134.146790,226.906219 
	C161.003662,169.663162 205.332031,133.377304 267.402161,121.692093 
	C326.820221,110.506142 379.874420,126.287460 424.889252,167.115448 
	C448.828064,188.827713 465.435455,215.376678 475.028229,246.958435 
	C473.549194,248.470169 472.258759,249.597824 470.776794,249.976974 
	C454.125061,254.237366 437.510162,258.677856 420.744720,262.443726 
	C411.279938,264.569672 401.572723,265.669159 391.940948,266.983398 
	C382.951538,268.209930 373.917511,269.109100 364.903107,270.152344 
z"/>
<path fill="#FEFEFD" opacity="1.000000" stroke="none" 
	d="
M269.223999,270.228149 
	C283.751038,256.321808 302.461578,252.934631 319.593079,260.903290 
	C336.480988,268.758667 346.275360,285.551392 345.072571,304.588654 
	C343.961395,322.176178 331.336639,337.806915 313.808807,343.296356 
	C295.048859,349.171692 274.637268,341.622223 263.740448,324.778015 
	C252.725128,307.750610 254.764587,286.596100 269.223999,270.228149 
z"/>
<path fill="#C51E0E" opacity="1.000000" stroke="none" 
	d="
M126.753998,247.257645 
	C131.875885,248.050400 136.734177,249.040283 141.571579,250.123413 
	C159.154999,254.060425 176.647705,258.466766 194.336990,261.846191 
	C208.450531,264.542603 222.800430,266.001862 237.465988,268.024231 
	C235.965027,273.681458 234.243301,279.406952 231.979614,284.909454 
	C231.422989,286.262482 229.102997,287.719421 227.586914,287.726715 
	C192.621613,287.895691 157.655319,287.843201 122.689407,287.926056 
	C119.353233,287.933960 118.542221,286.269531 119.084732,283.559082 
	C121.493019,271.527130 124.005806,259.516144 126.753998,247.257645 
z"/>
<path fill="#C51E0E" opacity="1.000000" stroke="none" 
	d="
M364.966248,270.509277 
	C373.917511,269.109100 382.951538,268.209930 391.940948,266.983398 
	C401.572723,265.669159 411.279938,264.569672 420.744720,262.443726 
	C437.510162,258.677856 454.125061,254.237366 470.776794,249.976974 
	C472.258759,249.597824 473.549194,248.470169 475.057007,247.348602 
	C477.763489,259.313629 480.383881,271.611572 482.890015,283.932770 
	C483.522217,287.040985 481.802826,287.905121 478.870422,287.899323 
	C444.055420,287.830597 409.240204,287.823212 374.425232,287.892426 
	C371.541168,287.898163 370.294373,286.679749 369.513062,284.082092 
	C368.173950,279.630005 366.539703,275.266754 364.966248,270.509277 
z"/>
<path fill="#122169" opacity="1.000000" stroke="none" 
	d="
M339.817841,95.479782 
	C340.176361,95.151871 340.688110,95.095345 341.583862,95.035950 
	C341.986267,95.404366 342.004639,95.775635 342.037476,96.420029 
	C341.358307,96.379150 340.664703,96.065163 339.817841,95.479782 
z"/>
<path fill="#29539B" opacity="1.000000" stroke="none" 
	d="
M92.183121,291.795837 
	C91.997375,291.219788 91.994614,290.415558 92.035011,289.207245 
	C92.174149,289.724670 92.270126,290.646179 92.183121,291.795837 
z"/>
<path fill="#1F3B8B" opacity="1.000000" stroke="none" 
	d="
M105.171692,227.949890 
	C105.045715,227.828522 105.121361,227.602219 105.357162,227.258682 
	C105.567932,227.388947 105.519928,227.623444 105.171692,227.949890 
z"/>
<path fill="#24418E" opacity="1.000000" stroke="none" 
	d="
M506.841248,264.018158 
	C506.976624,264.077484 506.996552,264.260559 507.015289,264.719971 
	C506.917999,264.711517 506.821899,264.426727 506.841248,264.018158 
z"/>
<path fill="#FFFFFF" opacity="1.000000" stroke="none" 
	d="
M481.773682,314.339020 
	C481.749542,314.553558 481.431671,314.698761 481.004822,314.633331 
	C481.090576,314.371643 481.285248,314.320648 481.773682,314.339020 
z"/>
<path fill="#FFFFFF" opacity="1.000000" stroke="none" 
	d="
M371.723999,314.346771 
	C371.783630,314.629150 371.515289,314.861176 371.096436,314.938660 
	C371.095978,314.621552 371.246002,314.458954 371.723999,314.346771 
z"/>
<path fill="#29539B" opacity="1.000000" stroke="none" 
	d="
M92.258636,286.144409 
	C92.077995,286.008606 92.136406,285.714294 92.417389,285.262268 
	C92.641258,285.402679 92.593826,285.696472 92.258636,286.144409 
z"/>
</svg>